<svg version="1.1" viewBox="0.0 0.0 600.0 371.0" fill="none" stroke="none" stroke-linecap="square" stroke-miterlimit="10" width="600" height="371" xmlns:xlink="http://www.w3.org/1999/xlink" xmlns="http://www.w3.org/2000/svg"><path fill="#ffffff" d="M0 0L600.0 0L600.0 371.0L0 371.0L0 0Z" fill-rule="nonzero"/><path stroke="#333333" stroke-width="1.0" stroke-linecap="butt" d="M45.5 332.5L581.5 332.5" fill-rule="nonzero"/><path stroke="#cccccc" stroke-width="1.0" stroke-linecap="butt" d="M45.5 255.5L581.5 255.5" fill-rule="nonzero"/><path stroke="#cccccc" stroke-width="1.0" stroke-linecap="butt" d="M45.5 179.5L581.5 179.5" fill-rule="nonzero"/><path stroke="#cccccc" stroke-width="1.0" stroke-linecap="butt" d="M45.5 102.5L581.5 102.5" fill-rule="nonzero"/><path stroke="#cccccc" stroke-width="1.0" stroke-linecap="butt" d="M45.5 25.5L581.5 25.5" fill-rule="nonzero"/><clipPath id="id_0"><path d="M45.55 25.55L581.45 25.55L581.45 332.45L45.55 332.45L45.55 25.55Z" clip-rule="nonzero"/></clipPath><path stroke="#000000" stroke-width="2.0" stroke-linecap="butt" stroke-opacity="0.0" clip-path="url(#id_0)" d="M73.0 332.0L55.0 332.0L55.0 331.5C55.0 331.22385 55.223858 331.0 55.5 331.0L72.5 331.0C72.776146 331.0 73.0 331.22385 73.0 331.5Z" fill-rule="nonzero"/><path fill="#4285f4" clip-path="url(#id_0)" d="M73.0 332.0L55.0 332.0L55.0 331.5C55.0 331.22385 55.223858 331.0 55.5 331.0L72.5 331.0C72.776146 331.0 73.0 331.22385 73.0 331.5Z" fill-rule="nonzero"/><path stroke="#000000" stroke-width="2.0" stroke-linecap="butt" stroke-opacity="0.0" clip-path="url(#id_0)" d="M101.0 332.0L83.0 332.0L83.0 331.0C83.0 330.44772 83.447716 330.0 84.0 330.0L100.0 330.0C100.552284 330.0 101.0 330.44772 101.0 331.0Z" fill-rule="nonzero"/><path fill="#4285f4" clip-path="url(#id_0)" d="M101.0 332.0L83.0 332.0L83.0 331.0C83.0 330.44772 83.447716 330.0 84.0 330.0L100.0 330.0C100.552284 330.0 101.0 330.44772 101.0 331.0Z" fill-rule="nonzero"/><path stroke="#000000" stroke-width="2.0" stroke-linecap="butt" stroke-opacity="0.0" clip-path="url(#id_0)" d="M129.0 332.0L111.0 332.0L111.0 330.0C111.0 328.89542 111.89543 328.0 113.0 328.0L127.0 328.0C128.10457 328.0 129.0 328.89542 129.0 330.0Z" fill-rule="nonzero"/><path fill="#4285f4" clip-path="url(#id_0)" d="M129.0 332.0L111.0 332.0L111.0 330.0C111.0 328.89542 111.89543 328.0 113.0 328.0L127.0 328.0C128.10457 328.0 129.0 328.89542 129.0 330.0Z" fill-rule="nonzero"/><path stroke="#000000" stroke-width="2.0" stroke-linecap="butt" stroke-opacity="0.0" clip-path="url(#id_0)" d="M156.0 332.0L138.0 332.0L138.0 329.0C138.0 327.89542 138.89543 327.0 140.0 327.0L154.0 327.0C155.10457 327.0 156.0 327.89542 156.0 329.0Z" fill-rule="nonzero"/><path fill="#4285f4" clip-path="url(#id_0)" d="M156.0 332.0L138.0 332.0L138.0 329.0C138.0 327.89542 138.89543 327.0 140.0 327.0L154.0 327.0C155.10457 327.0 156.0 327.89542 156.0 329.0Z" fill-rule="nonzero"/><path stroke="#000000" stroke-width="2.0" stroke-linecap="butt" stroke-opacity="0.0" clip-path="url(#id_0)" d="M184.0 332.0L166.0 332.0L166.0 327.0C166.0 325.89542 166.89543 325.0 168.0 325.0L182.0 325.0C183.10457 325.0 184.0 325.89542 184.0 327.0Z" fill-rule="nonzero"/><path fill="#4285f4" clip-path="url(#id_0)" d="M184.0 332.0L166.0 332.0L166.0 327.0C166.0 325.89542 166.89543 325.0 168.0 325.0L182.0 325.0C183.10457 325.0 184.0 325.89542 184.0 327.0Z" fill-rule="nonzero"/><path stroke="#000000" stroke-width="2.0" stroke-linecap="butt" stroke-opacity="0.0" clip-path="url(#id_0)" d="M212.0 332.0L194.0 332.0L194.0 324.0C194.0 322.89542 194.89543 322.0 196.0 322.0L210.0 322.0C211.10457 322.0 212.0 322.89542 212.0 324.0Z" fill-rule="nonzero"/><path fill="#4285f4" clip-path="url(#id_0)" d="M212.0 332.0L194.0 332.0L194.0 324.0C194.0 322.89542 194.89543 322.0 196.0 322.0L210.0 322.0C211.10457 322.0 212.0 322.89542 212.0 324.0Z" fill-rule="nonzero"/><path stroke="#000000" stroke-width="2.0" stroke-linecap="butt" stroke-opacity="0.0" clip-path="url(#id_0)" d="M239.0 332.0L221.0 332.0L221.0 321.0C221.0 319.89542 221.89543 319.0 223.0 319.0L237.0 319.0C238.10457 319.0 239.0 319.89542 239.0 321.0Z" fill-rule="nonzero"/><path fill="#4285f4" clip-path="url(#id_0)" d="M239.0 332.0L221.0 332.0L221.0 321.0C221.0 319.89542 221.89543 319.0 223.0 319.0L237.0 319.0C238.10457 319.0 239.0 319.89542 239.0 321.0Z" fill-rule="nonzero"/><path stroke="#000000" stroke-width="2.0" stroke-linecap="butt" stroke-opacity="0.0" clip-path="url(#id_0)" d="M267.0 332.0L249.0 332.0L249.0 315.0C249.0 313.89542 249.89543 313.0 251.0 313.0L265.0 313.0C266.10458 313.0 267.0 313.89542 267.0 315.0Z" fill-rule="nonzero"/><path fill="#4285f4" clip-path="url(#id_0)" d="M267.0 332.0L249.0 332.0L249.0 315.0C249.0 313.89542 249.89543 313.0 251.0 313.0L265.0 313.0C266.10458 313.0 267.0 313.89542 267.0 315.0Z" fill-rule="nonzero"/><path stroke="#000000" stroke-width="2.0" stroke-linecap="butt" stroke-opacity="0.0" clip-path="url(#id_0)" d="M295.0 332.0L277.0 332.0L277.0 307.0C277.0 305.89542 277.89542 305.0 279.0 305.0L293.0 305.0C294.10458 305.0 295.0 305.89542 295.0 307.0Z" fill-rule="nonzero"/><path fill="#4285f4" clip-path="url(#id_0)" d="M295.0 332.0L277.0 332.0L277.0 307.0C277.0 305.89542 277.89542 305.0 279.0 305.0L293.0 305.0C294.10458 305.0 295.0 305.89542 295.0 307.0Z" fill-rule="nonzero"/><path stroke="#000000" stroke-width="2.0" stroke-linecap="butt" stroke-opacity="0.0" clip-path="url(#id_0)" d="M323.0 332.0L305.0 332.0L305.0 284.0C305.0 282.89542 305.89542 282.0 307.0 282.0L321.0 282.0C322.10458 282.0 323.0 282.89542 323.0 284.0Z" fill-rule="nonzero"/><path fill="#4285f4" clip-path="url(#id_0)" d="M323.0 332.0L305.0 332.0L305.0 284.0C305.0 282.89542 305.89542 282.0 307.0 282.0L321.0 282.0C322.10458 282.0 323.0 282.89542 323.0 284.0Z" fill-rule="nonzero"/><path stroke="#000000" stroke-width="2.0" stroke-linecap="butt" stroke-opacity="0.0" clip-path="url(#id_0)" d="M350.0 332.0L332.0 332.0L332.0 220.0C332.0 218.89543 332.89542 218.0 334.0 218.0L348.0 218.0C349.10458 218.0 350.0 218.89543 350.0 220.0Z" fill-rule="nonzero"/><path fill="#4285f4" clip-path="url(#id_0)" d="M350.0 332.0L332.0 332.0L332.0 220.0C332.0 218.89543 332.89542 218.0 334.0 218.0L348.0 218.0C349.10458 218.0 350.0 218.89543 350.0 220.0Z" fill-rule="nonzero"/><path stroke="#000000" stroke-width="2.0" stroke-linecap="butt" stroke-opacity="0.0" clip-path="url(#id_0)" d="M378.0 332.0L360.0 332.0L360.0 44.0C360.0 42.89543 360.89542 42.0 362.0 42.0L376.0 42.0C377.10458 42.0 378.0 42.89543 378.0 44.0Z" fill-rule="nonzero"/><path fill="#4285f4" clip-path="url(#id_0)" d="M378.0 332.0L360.0 332.0L360.0 44.0C360.0 42.89543 360.89542 42.0 362.0 42.0L376.0 42.0C377.10458 42.0 378.0 42.89543 378.0 44.0Z" fill-rule="nonzero"/><path stroke="#000000" stroke-width="2.0" stroke-linecap="butt" stroke-opacity="0.0" clip-path="url(#id_0)" d="M406.0 332.0L388.0 332.0L388.0 67.0C388.0 65.89543 388.89542 65.0 390.0 65.0L404.0 65.0C405.10458 65.0 406.0 65.89543 406.0 67.0Z" fill-rule="nonzero"/><path fill="#4285f4" clip-path="url(#id_0)" d="M406.0 332.0L388.0 332.0L388.0 67.0C388.0 65.89543 388.89542 65.0 390.0 65.0L404.0 65.0C405.10458 65.0 406.0 65.89543 406.0 67.0Z" fill-rule="nonzero"/><path stroke="#000000" stroke-width="2.0" stroke-linecap="butt" stroke-opacity="0.0" clip-path="url(#id_0)" d="M433.0 332.0L415.0 332.0L415.0 111.0C415.0 109.89543 415.89542 109.0 417.0 109.0L431.0 109.0C432.10458 109.0 433.0 109.89543 433.0 111.0Z" fill-rule="nonzero"/><path fill="#4285f4" clip-path="url(#id_0)" d="M433.0 332.0L415.0 332.0L415.0 111.0C415.0 109.89543 415.89542 109.0 417.0 109.0L431.0 109.0C432.10458 109.0 433.0 109.89543 433.0 111.0Z" fill-rule="nonzero"/><path stroke="#000000" stroke-width="2.0" stroke-linecap="butt" stroke-opacity="0.0" clip-path="url(#id_0)" d="M461.0 332.0L443.0 332.0L443.0 133.0C443.0 131.89543 443.89542 131.0 445.0 131.0L459.0 131.0C460.10458 131.0 461.0 131.89543 461.0 133.0Z" fill-rule="nonzero"/><path fill="#4285f4" clip-path="url(#id_0)" d="M461.0 332.0L443.0 332.0L443.0 133.0C443.0 131.89543 443.89542 131.0 445.0 131.0L459.0 131.0C460.10458 131.0 461.0 131.89543 461.0 133.0Z" fill-rule="nonzero"/><path stroke="#000000" stroke-width="2.0" stroke-linecap="butt" stroke-opacity="0.0" clip-path="url(#id_0)" d="M489.0 332.0L471.0 332.0L471.0 148.0C471.0 146.89543 471.89542 146.0 473.0 146.0L487.0 146.0C488.10458 146.0 489.0 146.89543 489.0 148.0Z" fill-rule="nonzero"/><path fill="#4285f4" clip-path="url(#id_0)" d="M489.0 332.0L471.0 332.0L471.0 148.0C471.0 146.89543 471.89542 146.0 473.0 146.0L487.0 146.0C488.10458 146.0 489.0 146.89543 489.0 148.0Z" fill-rule="nonzero"/><path stroke="#000000" stroke-width="2.0" stroke-linecap="butt" stroke-opacity="0.0" clip-path="url(#id_0)" d="M516.0 332.0L498.0 332.0L498.0 157.0C498.0 155.89543 498.89542 155.0 500.0 155.0L514.0 155.0C515.10455 155.0 516.0 155.89543 516.0 157.0Z" fill-rule="nonzero"/><path fill="#4285f4" clip-path="url(#id_0)" d="M516.0 332.0L498.0 332.0L498.0 157.0C498.0 155.89543 498.89542 155.0 500.0 155.0L514.0 155.0C515.10455 155.0 516.0 155.89543 516.0 157.0Z" fill-rule="nonzero"/><path stroke="#000000" stroke-width="2.0" stroke-linecap="butt" stroke-opacity="0.0" clip-path="url(#id_0)" d="M544.0 332.0L526.0 332.0L526.0 165.0C526.0 163.89543 526.89545 163.0 528.0 163.0L542.0 163.0C543.10455 163.0 544.0 163.89543 544.0 165.0Z" fill-rule="nonzero"/><path fill="#4285f4" clip-path="url(#id_0)" d="M544.0 332.0L526.0 332.0L526.0 165.0C526.0 163.89543 526.89545 163.0 528.0 163.0L542.0 163.0C543.10455 163.0 544.0 163.89543 544.0 165.0Z" fill-rule="nonzero"/><path stroke="#000000" stroke-width="2.0" stroke-linecap="butt" stroke-opacity="0.0" clip-path="url(#id_0)" d="M572.0 332.0L554.0 332.0L554.0 171.0C554.0 169.89543 554.89545 169.0 556.0 169.0L570.0 169.0C571.10455 169.0 572.0 169.89543 572.0 171.0Z" fill-rule="nonzero"/><path fill="#4285f4" clip-path="url(#id_0)" d="M572.0 332.0L554.0 332.0L554.0 171.0C554.0 169.89543 554.89545 169.0 556.0 169.0L570.0 169.0C571.10455 169.0 572.0 169.89543 572.0 171.0Z" fill-rule="nonzero"/><path fill="#000000" d="M33.05 332.21564Q33.05 330.6844 33.3625 329.7625Q33.675 328.825 34.284374 328.325Q34.909374 327.825 35.846874 327.825Q36.534374 327.825 37.05 328.10626Q37.58125 328.3875 37.925 328.91876Q38.26875 329.4344 38.45625 330.1844Q38.64375 330.9344 38.64375 332.21564Q38.64375 333.73126 38.33125 334.65314Q38.034374 335.575 37.409374 336.09064Q36.8 336.59064 35.846874 336.59064Q34.6125 336.59064 33.89375 335.7Q33.05 334.6375 33.05 332.21564ZM34.128124 332.21564Q34.128124 334.325 34.628124 335.02814Q35.128124 335.73126 35.846874 335.73126Q36.58125 335.73126 37.065624 335.02814Q37.565624 334.325 37.565624 332.21564Q37.565624 330.09064 37.065624 329.40314Q36.58125 328.7 35.83125 328.7Q35.1125 328.7 34.675 329.3094Q34.128124 330.09064 34.128124 332.21564Z" fill-rule="nonzero"/><path fill="#000000" d="M26.05 257.475L27.159374 257.38126Q27.284374 258.19376 27.721874 258.6Q28.175 259.00626 28.815624 259.00626Q29.565624 259.00626 30.096874 258.42813Q30.628124 257.85 30.628124 256.9125Q30.628124 256.00626 30.1125 255.49063Q29.6125 254.95938 28.784374 254.95938Q28.284374 254.95938 27.8625 255.19376Q27.45625 255.42813 27.221874 255.7875L26.2375 255.6625L27.065624 251.25626L31.346874 251.25626L31.346874 252.25626L27.909374 252.25626L27.45625 254.56876Q28.221874 254.02188 29.065624 254.02188Q30.190624 254.02188 30.95625 254.80313Q31.7375 255.58438 31.7375 256.81876Q31.7375 257.975 31.065624 258.83438Q30.2375 259.86563 28.815624 259.86563Q27.64375 259.86563 26.89375 259.20938Q26.159374 258.55313 26.05 257.475ZM33.05 255.49063Q33.05 253.95938 33.3625 253.0375Q33.675 252.1 34.284374 251.6Q34.909374 251.1 35.846874 251.1Q36.534374 251.1 37.05 251.38126Q37.58125 251.6625 37.925 252.19376Q38.26875 252.70938 38.45625 253.45938Q38.64375 254.20938 38.64375 255.49063Q38.64375 257.00626 38.33125 257.92813Q38.034374 258.85 37.409374 259.36563Q36.8 259.86563 35.846874 259.86563Q34.6125 259.86563 33.89375 258.975Q33.05 257.9125 33.05 255.49063ZM34.128124 255.49063Q34.128124 257.6 34.628124 258.30313Q35.128124 259.00626 35.846874 259.00626Q36.58125 259.00626 37.065624 258.30313Q37.565624 257.6 37.565624 255.49063Q37.565624 253.36563 37.065624 252.67813Q36.58125 251.975 35.83125 251.975Q35.1125 251.975 34.675 252.58438Q34.128124 253.36563 34.128124 255.49063Z" fill-rule="nonzero"/><path fill="#000000" d="M23.01875 183.0L21.971874 183.0L21.971874 176.28125Q21.58125 176.64062 20.95625 177.01562Q20.346874 177.375 19.8625 177.54688L19.8625 176.53125Q20.7375 176.10938 21.39375 175.53125Q22.065624 174.9375 22.346874 174.375L23.01875 174.375L23.01875 183.0ZM26.05 178.76562Q26.05 177.23438 26.3625 176.3125Q26.675 175.375 27.284374 174.875Q27.909374 174.375 28.846874 174.375Q29.534374 174.375 30.05 174.65625Q30.58125 174.9375 30.925 175.46875Q31.26875 175.98438 31.45625 176.73438Q31.64375 177.48438 31.64375 178.76562Q31.64375 180.28125 31.33125 181.20312Q31.034374 182.125 30.409374 182.64062Q29.8 183.14062 28.846874 183.14062Q27.6125 183.14062 26.89375 182.25Q26.05 181.1875 26.05 178.76562ZM27.128124 178.76562Q27.128124 180.875 27.628124 181.57812Q28.128124 182.28125 28.846874 182.28125Q29.58125 182.28125 30.065624 181.57812Q30.565624 180.875 30.565624 178.76562Q30.565624 176.64062 30.065624 175.95312Q29.58125 175.25 28.83125 175.25Q28.1125 175.25 27.675 175.85938Q27.128124 176.64062 27.128124 178.76562ZM33.05 178.76562Q33.05 177.23438 33.3625 176.3125Q33.675 175.375 34.284374 174.875Q34.909374 174.375 35.846874 174.375Q36.534374 174.375 37.05 174.65625Q37.58125 174.9375 37.925 175.46875Q38.26875 175.98438 38.45625 176.73438Q38.64375 177.48438 38.64375 178.76562Q38.64375 180.28125 38.33125 181.20312Q38.034374 182.125 37.409374 182.64062Q36.8 183.14062 35.846874 183.14062Q34.6125 183.14062 33.89375 182.25Q33.05 181.1875 33.05 178.76562ZM34.128124 178.76562Q34.128124 180.875 34.628124 181.57812Q35.128124 182.28125 35.846874 182.28125Q36.58125 182.28125 37.065624 181.57812Q37.565624 180.875 37.565624 178.76562Q37.565624 176.64062 37.065624 175.95312Q36.58125 175.25 35.83125 175.25Q35.1125 175.25 34.675 175.85938Q34.128124 176.64062 34.128124 178.76562Z" fill-rule="nonzero"/><path fill="#000000" d="M23.01875 106.275L21.971874 106.275L21.971874 99.55625Q21.58125 99.91563 20.95625 100.29063Q20.346874 100.65 19.8625 100.82188L19.8625 99.80625Q20.7375 99.38438 21.39375 98.80625Q22.065624 98.2125 22.346874 97.65L23.01875 97.65L23.01875 106.275ZM26.05 104.025L27.159374 103.93125Q27.284374 104.74375 27.721874 105.15Q28.175 105.55625 28.815624 105.55625Q29.565624 105.55625 30.096874 104.97813Q30.628124 104.4 30.628124 103.4625Q30.628124 102.55625 30.1125 102.04063Q29.6125 101.50938 28.784374 101.50938Q28.284374 101.50938 27.8625 101.74375Q27.45625 101.97813 27.221874 102.3375L26.2375 102.2125L27.065624 97.80625L31.346874 97.80625L31.346874 98.80625L27.909374 98.80625L27.45625 101.11875Q28.221874 100.57188 29.065624 100.57188Q30.190624 100.57188 30.95625 101.35313Q31.7375 102.13438 31.7375 103.36875Q31.7375 104.525 31.065624 105.38438Q30.2375 106.41563 28.815624 106.41563Q27.64375 106.41563 26.89375 105.75938Q26.159374 105.10313 26.05 104.025ZM33.05 102.04063Q33.05 100.50938 33.3625 99.5875Q33.675 98.65 34.284374 98.15Q34.909374 97.65 35.846874 97.65Q36.534374 97.65 37.05 97.93125Q37.58125 98.2125 37.925 98.74375Q38.26875 99.25938 38.45625 100.00938Q38.64375 100.75938 38.64375 102.04063Q38.64375 103.55625 38.33125 104.47813Q38.034374 105.4 37.409374 105.91563Q36.8 106.41563 35.846874 106.41563Q34.6125 106.41563 33.89375 105.525Q33.05 104.4625 33.05 102.04063ZM34.128124 102.04063Q34.128124 104.15 34.628124 104.85313Q35.128124 105.55625 35.846874 105.55625Q36.58125 105.55625 37.065624 104.85313Q37.565624 104.15 37.565624 102.04063Q37.565624 99.91563 37.065624 99.22813Q36.58125 98.525 35.83125 98.525Q35.1125 98.525 34.675 99.13438Q34.128124 99.91563 34.128124 102.04063Z" fill-rule="nonzero"/><path fill="#000000" d="M24.596874 28.534374L24.596874 29.55L18.909374 29.55Q18.909374 29.175 19.034374 28.815624Q19.253124 28.2375 19.721874 27.675Q20.20625 27.1125 21.1125 26.378124Q22.51875 25.221874 23.003124 24.55Q23.503124 23.878124 23.503124 23.284374Q23.503124 22.659374 23.05 22.2375Q22.596874 21.8 21.878124 21.8Q21.1125 21.8 20.659374 22.253124Q20.20625 22.70625 20.190624 23.51875L19.1125 23.409374Q19.221874 22.190624 19.940624 21.565624Q20.675 20.925 21.909374 20.925Q23.14375 20.925 23.8625 21.6125Q24.58125 22.3 24.58125 23.315624Q24.58125 23.83125 24.3625 24.33125Q24.159374 24.815624 23.659374 25.378124Q23.175 25.925 22.05 26.878124Q21.096874 27.675 20.815624 27.971874Q20.55 28.253124 20.378124 28.534374L24.596874 28.534374ZM26.05 25.315624Q26.05 23.784374 26.3625 22.8625Q26.675 21.925 27.284374 21.425Q27.909374 20.925 28.846874 20.925Q29.534374 20.925 30.05 21.20625Q30.58125 21.4875 30.925 22.01875Q31.26875 22.534374 31.45625 23.284374Q31.64375 24.034374 31.64375 25.315624Q31.64375 26.83125 31.33125 27.753124Q31.034374 28.675 30.409374 29.190624Q29.8 29.690624 28.846874 29.690624Q27.6125 29.690624 26.89375 28.8Q26.05 27.7375 26.05 25.315624ZM27.128124 25.315624Q27.128124 27.425 27.628124 28.128124Q28.128124 28.83125 28.846874 28.83125Q29.58125 28.83125 30.065624 28.128124Q30.565624 27.425 30.565624 25.315624Q30.565624 23.190624 30.065624 22.503124Q29.58125 21.8 28.83125 21.8Q28.1125 21.8 27.675 22.409374Q27.128124 23.190624 27.128124 25.315624ZM33.05 25.315624Q33.05 23.784374 33.3625 22.8625Q33.675 21.925 34.284374 21.425Q34.909374 20.925 35.846874 20.925Q36.534374 20.925 37.05 21.20625Q37.58125 21.4875 37.925 22.01875Q38.26875 22.534374 38.45625 23.284374Q38.64375 24.034374 38.64375 25.315624Q38.64375 26.83125 38.33125 27.753124Q38.034374 28.675 37.409374 29.190624Q36.8 29.690624 35.846874 29.690624Q34.6125 29.690624 33.89375 28.8Q33.05 27.7375 33.05 25.315624ZM34.128124 25.315624Q34.128124 27.425 34.628124 28.128124Q35.128124 28.83125 35.846874 28.83125Q36.58125 28.83125 37.065624 28.128124Q37.565624 27.425 37.565624 25.315624Q37.565624 23.190624 37.065624 22.503124Q36.58125 21.8 35.83125 21.8Q35.1125 21.8 34.675 22.409374Q34.128124 23.190624 34.128124 25.315624Z" fill-rule="nonzero"/><path fill="#000000" d="M52.744186 345.21564Q52.744186 343.6844 53.056686 342.7625Q53.369186 341.825 53.97856 341.325Q54.60356 340.825 55.54106 340.825Q56.22856 340.825 56.744186 341.10626Q57.275436 341.3875 57.619186 341.91876Q57.962936 342.4344 58.150436 343.1844Q58.337936 343.9344 58.337936 345.21564Q58.337936 346.73126 58.025436 347.65314Q57.72856 348.575 57.10356 349.09064Q56.494186 349.59064 55.54106 349.59064Q54.306686 349.59064 53.587936 348.7Q52.744186 347.6375 52.744186 345.21564ZM53.82231 345.21564Q53.82231 347.325 54.32231 348.02814Q54.82231 348.73126 55.54106 348.73126Q56.275436 348.73126 56.75981 348.02814Q57.25981 347.325 57.25981 345.21564Q57.25981 343.09064 56.75981 342.40314Q56.275436 341.7 55.525436 341.7Q54.806686 341.7 54.369186 342.3094Q53.82231 343.09064 53.82231 345.21564ZM60.337936 349.45L60.337936 348.2469L61.54106 348.2469L61.54106 349.45L60.337936 349.45ZM62.744186 345.21564Q62.744186 343.6844 63.056686 342.7625Q63.369186 341.825 63.97856 341.325Q64.60356 340.825 65.54106 340.825Q66.22856 340.825 66.74419 341.10626Q67.27544 341.3875 67.61919 341.91876Q67.96294 342.4344 68.15044 343.1844Q68.33794 343.9344 68.33794 345.21564Q68.33794 346.73126 68.02544 347.65314Q67.72856 348.575 67.10356 349.09064Q66.49419 349.59064 65.54106 349.59064Q64.30669 349.59064 63.587936 348.7Q62.744186 347.6375 62.744186 345.21564ZM63.82231 345.21564Q63.82231 347.325 64.32231 348.02814Q64.82231 348.73126 65.54106 348.73126Q66.27544 348.73126 66.75981 348.02814Q67.25981 347.325 67.25981 345.21564Q67.25981 343.09064 66.75981 342.40314Q66.27544 341.7 65.52544 341.7Q64.80669 341.7 64.36919 342.3094Q63.82231 343.09064 63.82231 345.21564ZM69.74419 347.2L70.85356 347.10626Q70.97856 347.91876 71.41606 348.325Q71.86919 348.73126 72.50981 348.73126Q73.25981 348.73126 73.79106 348.15314Q74.32231 347.575 74.32231 346.6375Q74.32231 345.73126 73.80669 345.21564Q73.30669 344.6844 72.47856 344.6844Q71.97856 344.6844 71.55669 344.91876Q71.15044 345.15314 70.91606 345.5125L69.93169 345.3875L70.75981 340.98126L75.04106 340.98126L75.04106 341.98126L71.60356 341.98126L71.15044 344.29376Q71.91606 343.7469 72.75981 343.7469Q73.88481 343.7469 74.65044 344.52814Q75.43169 345.3094 75.43169 346.54376Q75.43169 347.7 74.75981 348.5594Q73.93169 349.59064 72.50981 349.59064Q71.33794 349.59064 70.58794 348.9344Q69.85356 348.27814 69.74419 347.2Z" fill-rule="nonzero"/><path fill="#000000" d="M83.93928 345.21564Q83.93928 343.6844 84.25178 342.7625Q84.56428 341.825 85.17365 341.325Q85.79865 340.825 86.73615 340.825Q87.42365 340.825 87.93928 341.10626Q88.47053 341.3875 88.81428 341.91876Q89.15803 342.4344 89.34553 343.1844Q89.53303 343.9344 89.53303 345.21564Q89.53303 346.73126 89.22053 347.65314Q88.92365 348.575 88.29865 349.09064Q87.68928 349.59064 86.73615 349.59064Q85.50178 349.59064 84.78303 348.7Q83.93928 347.6375 83.93928 345.21564ZM85.0174 345.21564Q85.0174 347.325 85.5174 348.02814Q86.0174 348.73126 86.73615 348.73126Q87.47053 348.73126 87.9549 348.02814Q88.4549 347.325 88.4549 345.21564Q88.4549 343.09064 87.9549 342.40314Q87.47053 341.7 86.72053 341.7Q86.00178 341.7 85.56428 342.3094Q85.0174 343.09064 85.0174 345.21564ZM91.53303 349.45L91.53303 348.2469L92.73615 348.2469L92.73615 349.45L91.53303 349.45ZM97.90803 349.45L96.86115 349.45L96.86115 342.73126Q96.47053 343.09064 95.84553 343.46564Q95.23615 343.825 94.75178 343.9969L94.75178 342.98126Q95.62678 342.5594 96.28303 341.98126Q96.9549 341.3875 97.23615 340.825L97.90803 340.825L97.90803 349.45Z" fill-rule="nonzero"/><path fill="#000000" d="M108.13437 345.21564Q108.13437 343.6844 108.44687 342.7625Q108.75937 341.825 109.368744 341.325Q109.993744 340.825 110.931244 340.825Q111.618744 340.825 112.13437 341.10626Q112.66562 341.3875 113.00937 341.91876Q113.35312 342.4344 113.54062 343.1844Q113.72812 343.9344 113.72812 345.21564Q113.72812 346.73126 113.41562 347.65314Q113.118744 348.575 112.493744 349.09064Q111.88437 349.59064 110.931244 349.59064Q109.69687 349.59064 108.97812 348.7Q108.13437 347.6375 108.13437 345.21564ZM109.212494 345.21564Q109.212494 347.325 109.712494 348.02814Q110.212494 348.73126 110.931244 348.73126Q111.66562 348.73126 112.149994 348.02814Q112.649994 347.325 112.649994 345.21564Q112.649994 343.09064 112.149994 342.40314Q111.66562 341.7 110.91562 341.7Q110.19687 341.7 109.75937 342.3094Q109.212494 343.09064 109.212494 345.21564ZM115.72812 349.45L115.72812 348.2469L116.931244 348.2469L116.931244 349.45L115.72812 349.45ZM122.10312 349.45L121.056244 349.45L121.056244 342.73126Q120.66562 343.09064 120.04062 343.46564Q119.431244 343.825 118.94687 343.9969L118.94687 342.98126Q119.82187 342.5594 120.47812 341.98126Q121.149994 341.3875 121.431244 340.825L122.10312 340.825L122.10312 349.45ZM125.13437 347.2L126.243744 347.10626Q126.368744 347.91876 126.806244 348.325Q127.25937 348.73126 127.899994 348.73126Q128.65 348.73126 129.18124 348.15314Q129.7125 347.575 129.7125 346.6375Q129.7125 345.73126 129.19687 345.21564Q128.69687 344.6844 127.868744 344.6844Q127.368744 344.6844 126.94687 344.91876Q126.54062 345.15314 126.306244 345.5125L125.32187 345.3875L126.149994 340.98126L130.43124 340.98126L130.43124 341.98126L126.993744 341.98126L126.54062 344.29376Q127.306244 343.7469 128.15 343.7469Q129.275 343.7469 130.04062 344.52814Q130.82187 345.3094 130.82187 346.54376Q130.82187 347.7 130.15 348.5594Q129.32187 349.59064 127.899994 349.59064Q126.72812 349.59064 125.97812 348.9344Q125.243744 348.27814 125.13437 347.2Z" fill-rule="nonzero"/><path fill="#000000" d="M139.32945 345.21564Q139.32945 343.6844 139.64195 342.7625Q139.95445 341.825 140.56383 341.325Q141.18883 340.825 142.12633 340.825Q142.81383 340.825 143.32945 341.10626Q143.8607 341.3875 144.20445 341.91876Q144.5482 342.4344 144.7357 343.1844Q144.9232 343.9344 144.9232 345.21564Q144.9232 346.73126 144.6107 347.65314Q144.31383 348.575 143.68883 349.09064Q143.07945 349.59064 142.12633 349.59064Q140.89195 349.59064 140.1732 348.7Q139.32945 347.6375 139.32945 345.21564ZM140.40758 345.21564Q140.40758 347.325 140.90758 348.02814Q141.40758 348.73126 142.12633 348.73126Q142.8607 348.73126 143.34508 348.02814Q143.84508 347.325 143.84508 345.21564Q143.84508 343.09064 143.34508 342.40314Q142.8607 341.7 142.1107 341.7Q141.39195 341.7 140.95445 342.3094Q140.40758 343.09064 140.40758 345.21564ZM146.9232 349.45L146.9232 348.2469L148.12633 348.2469L148.12633 349.45L146.9232 349.45ZM154.87633 348.4344L154.87633 349.45L149.18883 349.45Q149.18883 349.075 149.31383 348.71564Q149.53258 348.1375 150.00133 347.575Q150.4857 347.0125 151.39195 346.27814Q152.7982 345.1219 153.28258 344.45Q153.78258 343.77814 153.78258 343.1844Q153.78258 342.5594 153.32945 342.1375Q152.87633 341.7 152.15758 341.7Q151.39195 341.7 150.93883 342.15314Q150.4857 342.60626 150.47008 343.41876L149.39195 343.3094Q149.50133 342.09064 150.22008 341.46564Q150.95445 340.825 152.18883 340.825Q153.4232 340.825 154.14195 341.5125Q154.8607 342.2 154.8607 343.21564Q154.8607 343.73126 154.64195 344.23126Q154.43883 344.71564 153.93883 345.27814Q153.45445 345.825 152.32945 346.77814Q151.37633 347.575 151.09508 347.8719Q150.82945 348.15314 150.65758 348.4344L154.87633 348.4344Z" fill-rule="nonzero"/><path fill="#000000" d="M163.52455 345.21564Q163.52455 343.6844 163.83705 342.7625Q164.14955 341.825 164.75893 341.325Q165.38393 340.825 166.32143 340.825Q167.00893 340.825 167.52455 341.10626Q168.0558 341.3875 168.39955 341.91876Q168.7433 342.4344 168.9308 343.1844Q169.1183 343.9344 169.1183 345.21564Q169.1183 346.73126 168.8058 347.65314Q168.50893 348.575 167.88393 349.09064Q167.27455 349.59064 166.32143 349.59064Q165.08705 349.59064 164.3683 348.7Q163.52455 347.6375 163.52455 345.21564ZM164.60268 345.21564Q164.60268 347.325 165.10268 348.02814Q165.60268 348.73126 166.32143 348.73126Q167.0558 348.73126 167.54018 348.02814Q168.04018 347.325 168.04018 345.21564Q168.04018 343.09064 167.54018 342.40314Q167.0558 341.7 166.3058 341.7Q165.58705 341.7 165.14955 342.3094Q164.60268 343.09064 164.60268 345.21564ZM171.1183 349.45L171.1183 348.2469L172.32143 348.2469L172.32143 349.45L171.1183 349.45ZM179.07143 348.4344L179.07143 349.45L173.38393 349.45Q173.38393 349.075 173.50893 348.71564Q173.72768 348.1375 174.19643 347.575Q174.6808 347.0125 175.58705 346.27814Q176.9933 345.1219 177.47768 344.45Q177.97768 343.77814 177.97768 343.1844Q177.97768 342.5594 177.52455 342.1375Q177.07143 341.7 176.35268 341.7Q175.58705 341.7 175.13393 342.15314Q174.6808 342.60626 174.66518 343.41876L173.58705 343.3094Q173.69643 342.09064 174.41518 341.46564Q175.14955 340.825 176.38393 340.825Q177.6183 340.825 178.33705 341.5125Q179.0558 342.2 179.0558 343.21564Q179.0558 343.73126 178.83705 344.23126Q178.63393 344.71564 178.13393 345.27814Q177.64955 345.825 176.52455 346.77814Q175.57143 347.575 175.29018 347.8719Q175.02455 348.15314 174.85268 348.4344L179.07143 348.4344ZM180.52455 347.2L181.63393 347.10626Q181.75893 347.91876 182.19643 348.325Q182.64955 348.73126 183.29018 348.73126Q184.04018 348.73126 184.57143 348.15314Q185.10268 347.575 185.10268 346.6375Q185.10268 345.73126 184.58705 345.21564Q184.08705 344.6844 183.25893 344.6844Q182.75893 344.6844 182.33705 344.91876Q181.9308 345.15314 181.69643 345.5125L180.71205 345.3875L181.54018 340.98126L185.82143 340.98126L185.82143 341.98126L182.38393 341.98126L181.9308 344.29376Q182.69643 343.7469 183.54018 343.7469Q184.66518 343.7469 185.4308 344.52814Q186.21205 345.3094 186.21205 346.54376Q186.21205 347.7 185.54018 348.5594Q184.71205 349.59064 183.29018 349.59064Q182.1183 349.59064 181.3683 348.9344Q180.63393 348.27814 180.52455 347.2Z" fill-rule="nonzero"/><path fill="#000000" d="M194.71964 345.21564Q194.71964 343.6844 195.03214 342.7625Q195.34464 341.825 195.95401 341.325Q196.57901 340.825 197.51651 340.825Q198.20401 340.825 198.71964 341.10626Q199.25089 341.3875 199.59464 341.91876Q199.93839 342.4344 200.12589 343.1844Q200.31339 343.9344 200.31339 345.21564Q200.31339 346.73126 200.00089 347.65314Q199.70401 348.575 199.07901 349.09064Q198.46964 349.59064 197.51651 349.59064Q196.28214 349.59064 195.56339 348.7Q194.71964 347.6375 194.71964 345.21564ZM195.79776 345.21564Q195.79776 347.325 196.29776 348.02814Q196.79776 348.73126 197.51651 348.73126Q198.25089 348.73126 198.73526 348.02814Q199.23526 347.325 199.23526 345.21564Q199.23526 343.09064 198.73526 342.40314Q198.25089 341.7 197.50089 341.7Q196.78214 341.7 196.34464 342.3094Q195.79776 343.09064 195.79776 345.21564ZM202.31339 349.45L202.31339 348.2469L203.51651 348.2469L203.51651 349.45L202.31339 349.45ZM204.71964 347.1844L205.78214 347.04376Q205.95401 347.9344 206.39151 348.34064Q206.82901 348.73126 207.45401 348.73126Q208.20401 348.73126 208.71964 348.21564Q209.23526 347.7 209.23526 346.9344Q209.23526 346.21564 208.75089 345.7469Q208.28214 345.2625 207.54776 345.2625Q207.25089 345.2625 206.79776 345.3875L206.92276 344.45Q207.03214 344.46564 207.09464 344.46564Q207.76651 344.46564 208.29776 344.1219Q208.84464 343.7625 208.84464 343.02814Q208.84464 342.45 208.45401 342.075Q208.06339 341.6844 207.43839 341.6844Q206.82901 341.6844 206.40714 342.075Q206.00089 342.46564 205.89151 343.23126L204.82901 343.04376Q205.01651 341.9969 205.70401 341.41876Q206.39151 340.825 207.40714 340.825Q208.11026 340.825 208.70401 341.1375Q209.29776 341.4344 209.61026 341.95Q209.92276 342.46564 209.92276 343.0594Q209.92276 343.60626 209.62589 344.075Q209.32901 344.52814 208.75089 344.79376Q209.50089 344.96564 209.92276 345.52814Q210.34464 346.075 210.34464 346.91876Q210.34464 348.04376 209.51651 348.825Q208.70401 349.60626 207.45401 349.60626Q206.32901 349.60626 205.57901 348.9344Q204.82901 348.2469 204.71964 347.1844Z" fill-rule="nonzero"/><path fill="#000000" d="M218.91473 345.21564Q218.91473 343.6844 219.22723 342.7625Q219.53973 341.825 220.14911 341.325Q220.77411 340.825 221.71161 340.825Q222.39911 340.825 222.91473 341.10626Q223.44598 341.3875 223.78973 341.91876Q224.13348 342.4344 224.32098 343.1844Q224.50848 343.9344 224.50848 345.21564Q224.50848 346.73126 224.19598 347.65314Q223.89911 348.575 223.27411 349.09064Q222.66473 349.59064 221.71161 349.59064Q220.47723 349.59064 219.75848 348.7Q218.91473 347.6375 218.91473 345.21564ZM219.99286 345.21564Q219.99286 347.325 220.49286 348.02814Q220.99286 348.73126 221.71161 348.73126Q222.44598 348.73126 222.93036 348.02814Q223.43036 347.325 223.43036 345.21564Q223.43036 343.09064 222.93036 342.40314Q222.44598 341.7 221.69598 341.7Q220.97723 341.7 220.53973 342.3094Q219.99286 343.09064 219.99286 345.21564ZM226.50848 349.45L226.50848 348.2469L227.71161 348.2469L227.71161 349.45L226.50848 349.45ZM228.91473 347.1844L229.97723 347.04376Q230.14911 347.9344 230.58661 348.34064Q231.02411 348.73126 231.64911 348.73126Q232.39911 348.73126 232.91473 348.21564Q233.43036 347.7 233.43036 346.9344Q233.43036 346.21564 232.94598 345.7469Q232.47723 345.2625 231.74286 345.2625Q231.44598 345.2625 230.99286 345.3875L231.11786 344.45Q231.22723 344.46564 231.28973 344.46564Q231.96161 344.46564 232.49286 344.1219Q233.03973 343.7625 233.03973 343.02814Q233.03973 342.45 232.64911 342.075Q232.25848 341.6844 231.63348 341.6844Q231.02411 341.6844 230.60223 342.075Q230.19598 342.46564 230.08661 343.23126L229.02411 343.04376Q229.21161 341.9969 229.89911 341.41876Q230.58661 340.825 231.60223 340.825Q232.30536 340.825 232.89911 341.1375Q233.49286 341.4344 233.80536 341.95Q234.11786 342.46564 234.11786 343.0594Q234.11786 343.60626 233.82098 344.075Q233.52411 344.52814 232.94598 344.79376Q233.69598 344.96564 234.11786 345.52814Q234.53973 346.075 234.53973 346.91876Q234.53973 348.04376 233.71161 348.825Q232.89911 349.60626 231.64911 349.60626Q230.52411 349.60626 229.77411 348.9344Q229.02411 348.2469 228.91473 347.1844ZM235.91473 347.2L237.02411 347.10626Q237.14911 347.91876 237.58661 348.325Q238.03973 348.73126 238.68036 348.73126Q239.43036 348.73126 239.96161 348.15314Q240.49286 347.575 240.49286 346.6375Q240.49286 345.73126 239.97723 345.21564Q239.47723 344.6844 238.64911 344.6844Q238.14911 344.6844 237.72723 344.91876Q237.32098 345.15314 237.08661 345.5125L236.10223 345.3875L236.93036 340.98126L241.21161 340.98126L241.21161 341.98126L237.77411 341.98126L237.32098 344.29376Q238.08661 343.7469 238.93036 343.7469Q240.05536 343.7469 240.82098 344.52814Q241.60223 345.3094 241.60223 346.54376Q241.60223 347.7 240.93036 348.5594Q240.10223 349.59064 238.68036 349.59064Q237.50848 349.59064 236.75848 348.9344Q236.02411 348.27814 235.91473 347.2Z" fill-rule="nonzero"/><path fill="#000000" d="M250.10982 345.21564Q250.10982 343.6844 250.42232 342.7625Q250.73482 341.825 251.3442 341.325Q251.9692 340.825 252.9067 340.825Q253.5942 340.825 254.10982 341.10626Q254.64107 341.3875 254.98482 341.91876Q255.32857 342.4344 255.51607 343.1844Q255.70357 343.9344 255.70357 345.21564Q255.70357 346.73126 255.39107 347.65314Q255.0942 348.575 254.4692 349.09064Q253.85982 349.59064 252.9067 349.59064Q251.67232 349.59064 250.95357 348.7Q250.10982 347.6375 250.10982 345.21564ZM251.18794 345.21564Q251.18794 347.325 251.68794 348.02814Q252.18794 348.73126 252.9067 348.73126Q253.64107 348.73126 254.12544 348.02814Q254.62544 347.325 254.62544 345.21564Q254.62544 343.09064 254.12544 342.40314Q253.64107 341.7 252.89107 341.7Q252.17232 341.7 251.73482 342.3094Q251.18794 343.09064 251.18794 345.21564ZM257.70355 349.45L257.70355 348.2469L258.90668 348.2469L258.90668 349.45L257.70355 349.45ZM263.4848 349.45L263.4848 347.3875L259.76605 347.3875L259.76605 346.41876L263.68793 340.85626L264.5473 340.85626L264.5473 346.41876L265.70355 346.41876L265.70355 347.3875L264.5473 347.3875L264.5473 349.45L263.4848 349.45ZM263.4848 346.41876L263.4848 342.5594L260.7973 346.41876L263.4848 346.41876Z" fill-rule="nonzero"/><path fill="#000000" d="M274.3049 345.21564Q274.3049 343.6844 274.6174 342.7625Q274.9299 341.825 275.53928 341.325Q276.16428 340.825 277.10178 340.825Q277.78928 340.825 278.3049 341.10626Q278.83615 341.3875 279.1799 341.91876Q279.52365 342.4344 279.71115 343.1844Q279.89865 343.9344 279.89865 345.21564Q279.89865 346.73126 279.58615 347.65314Q279.28928 348.575 278.66428 349.09064Q278.0549 349.59064 277.10178 349.59064Q275.8674 349.59064 275.14865 348.7Q274.3049 347.6375 274.3049 345.21564ZM275.38303 345.21564Q275.38303 347.325 275.88303 348.02814Q276.38303 348.73126 277.10178 348.73126Q277.83615 348.73126 278.32053 348.02814Q278.82053 347.325 278.82053 345.21564Q278.82053 343.09064 278.32053 342.40314Q277.83615 341.7 277.08615 341.7Q276.3674 341.7 275.9299 342.3094Q275.38303 343.09064 275.38303 345.21564ZM281.89865 349.45L281.89865 348.2469L283.10178 348.2469L283.10178 349.45L281.89865 349.45ZM287.6799 349.45L287.6799 347.3875L283.96115 347.3875L283.96115 346.41876L287.88303 340.85626L288.7424 340.85626L288.7424 346.41876L289.89865 346.41876L289.89865 347.3875L288.7424 347.3875L288.7424 349.45L287.6799 349.45ZM287.6799 346.41876L287.6799 342.5594L284.9924 346.41876L287.6799 346.41876ZM291.3049 347.2L292.41428 347.10626Q292.53928 347.91876 292.97678 348.325Q293.4299 348.73126 294.07053 348.73126Q294.82053 348.73126 295.35178 348.15314Q295.88303 347.575 295.88303 346.6375Q295.88303 345.73126 295.3674 345.21564Q294.8674 344.6844 294.03928 344.6844Q293.53928 344.6844 293.1174 344.91876Q292.71115 345.15314 292.47678 345.5125L291.4924 345.3875L292.32053 340.98126L296.60178 340.98126L296.60178 341.98126L293.16428 341.98126L292.71115 344.29376Q293.47678 343.7469 294.32053 343.7469Q295.44553 343.7469 296.21115 344.52814Q296.9924 345.3094 296.9924 346.54376Q296.9924 347.7 296.32053 348.5594Q295.4924 349.59064 294.07053 349.59064Q292.89865 349.59064 292.14865 348.9344Q291.41428 348.27814 291.3049 347.2Z" fill-rule="nonzero"/><path fill="#000000" d="M305.5 345.21564Q305.5 343.6844 305.8125 342.7625Q306.125 341.825 306.73438 341.325Q307.35938 340.825 308.29688 340.825Q308.98438 340.825 309.5 341.10626Q310.03125 341.3875 310.375 341.91876Q310.71875 342.4344 310.90625 343.1844Q311.09375 343.9344 311.09375 345.21564Q311.09375 346.73126 310.78125 347.65314Q310.48438 348.575 309.85938 349.09064Q309.25 349.59064 308.29688 349.59064Q307.0625 349.59064 306.34375 348.7Q305.5 347.6375 305.5 345.21564ZM306.57812 345.21564Q306.57812 347.325 307.07812 348.02814Q307.57812 348.73126 308.29688 348.73126Q309.03125 348.73126 309.51562 348.02814Q310.01562 347.325 310.01562 345.21564Q310.01562 343.09064 309.51562 342.40314Q309.03125 341.7 308.28125 341.7Q307.5625 341.7 307.125 342.3094Q306.57812 343.09064 306.57812 345.21564ZM313.09375 349.45L313.09375 348.2469L314.29688 348.2469L314.29688 349.45L313.09375 349.45ZM315.5 347.2L316.60938 347.10626Q316.73438 347.91876 317.17188 348.325Q317.625 348.73126 318.26562 348.73126Q319.01562 348.73126 319.54688 348.15314Q320.07812 347.575 320.07812 346.6375Q320.07812 345.73126 319.5625 345.21564Q319.0625 344.6844 318.23438 344.6844Q317.73438 344.6844 317.3125 344.91876Q316.90625 345.15314 316.67188 345.5125L315.6875 345.3875L316.51562 340.98126L320.79688 340.98126L320.79688 341.98126L317.35938 341.98126L316.90625 344.29376Q317.67188 343.7469 318.51562 343.7469Q319.64062 343.7469 320.40625 344.52814Q321.1875 345.3094 321.1875 346.54376Q321.1875 347.7 320.51562 348.5594Q319.6875 349.59064 318.26562 349.59064Q317.09375 349.59064 316.34375 348.9344Q315.60938 348.27814 315.5 347.2Z" fill-rule="nonzero"/><path fill="#000000" d="M329.6951 345.21564Q329.6951 343.6844 330.0076 342.7625Q330.3201 341.825 330.92947 341.325Q331.55447 340.825 332.49197 340.825Q333.17947 340.825 333.6951 341.10626Q334.22635 341.3875 334.5701 341.91876Q334.91385 342.4344 335.10135 343.1844Q335.28885 343.9344 335.28885 345.21564Q335.28885 346.73126 334.97635 347.65314Q334.67947 348.575 334.05447 349.09064Q333.4451 349.59064 332.49197 349.59064Q331.2576 349.59064 330.53885 348.7Q329.6951 347.6375 329.6951 345.21564ZM330.77322 345.21564Q330.77322 347.325 331.27322 348.02814Q331.77322 348.73126 332.49197 348.73126Q333.22635 348.73126 333.71072 348.02814Q334.21072 347.325 334.21072 345.21564Q334.21072 343.09064 333.71072 342.40314Q333.22635 341.7 332.47635 341.7Q331.7576 341.7 331.3201 342.3094Q330.77322 343.09064 330.77322 345.21564ZM337.28885 349.45L337.28885 348.2469L338.49197 348.2469L338.49197 349.45L337.28885 349.45ZM339.6951 347.2L340.80447 347.10626Q340.92947 347.91876 341.36697 348.325Q341.8201 348.73126 342.46072 348.73126Q343.21072 348.73126 343.74197 348.15314Q344.27322 347.575 344.27322 346.6375Q344.27322 345.73126 343.7576 345.21564Q343.2576 344.6844 342.42947 344.6844Q341.92947 344.6844 341.5076 344.91876Q341.10135 345.15314 340.86697 345.5125L339.8826 345.3875L340.71072 340.98126L344.99197 340.98126L344.99197 341.98126L341.55447 341.98126L341.10135 344.29376Q341.86697 343.7469 342.71072 343.7469Q343.83572 343.7469 344.60135 344.52814Q345.3826 345.3094 345.3826 346.54376Q345.3826 347.7 344.71072 348.5594Q343.8826 349.59064 342.46072 349.59064Q341.28885 349.59064 340.53885 348.9344Q339.80447 348.27814 339.6951 347.2ZM346.6951 347.2L347.80447 347.10626Q347.92947 347.91876 348.36697 348.325Q348.8201 348.73126 349.46072 348.73126Q350.21072 348.73126 350.74197 348.15314Q351.27322 347.575 351.27322 346.6375Q351.27322 345.73126 350.7576 345.21564Q350.2576 344.6844 349.42947 344.6844Q348.92947 344.6844 348.5076 344.91876Q348.10135 345.15314 347.86697 345.5125L346.8826 345.3875L347.71072 340.98126L351.99197 340.98126L351.99197 341.98126L348.55447 341.98126L348.10135 344.29376Q348.86697 343.7469 349.71072 343.7469Q350.83572 343.7469 351.60135 344.52814Q352.3826 345.3094 352.3826 346.54376Q352.3826 347.7 351.71072 348.5594Q350.8826 349.59064 349.46072 349.59064Q348.28885 349.59064 347.53885 348.9344Q346.80447 348.27814 346.6951 347.2Z" fill-rule="nonzero"/><path fill="#000000" d="M360.89017 345.21564Q360.89017 343.6844 361.20267 342.7625Q361.51517 341.825 362.12454 341.325Q362.74954 340.825 363.68704 340.825Q364.37454 340.825 364.89017 341.10626Q365.42142 341.3875 365.76517 341.91876Q366.10892 342.4344 366.29642 343.1844Q366.48392 343.9344 366.48392 345.21564Q366.48392 346.73126 366.17142 347.65314Q365.87454 348.575 365.24954 349.09064Q364.64017 349.59064 363.68704 349.59064Q362.45267 349.59064 361.73392 348.7Q360.89017 347.6375 360.89017 345.21564ZM361.9683 345.21564Q361.9683 347.325 362.4683 348.02814Q362.9683 348.73126 363.68704 348.73126Q364.42142 348.73126 364.9058 348.02814Q365.4058 347.325 365.4058 345.21564Q365.4058 343.09064 364.9058 342.40314Q364.42142 341.7 363.67142 341.7Q362.95267 341.7 362.51517 342.3094Q361.9683 343.09064 361.9683 345.21564ZM368.48392 349.45L368.48392 348.2469L369.68704 348.2469L369.68704 349.45L368.48392 349.45ZM376.35892 342.96564L375.31204 343.04376Q375.17142 342.41876 374.92142 342.1375Q374.48392 341.6844 373.85892 341.6844Q373.35892 341.6844 372.9683 341.96564Q372.48392 342.34064 372.18704 343.04376Q371.9058 343.73126 371.89017 345.0125Q372.26517 344.4344 372.81204 344.15314Q373.37454 343.8719 373.98392 343.8719Q375.0308 343.8719 375.76517 344.65314Q376.51517 345.4344 376.51517 346.65314Q376.51517 347.46564 376.1558 348.16876Q375.81204 348.85626 375.20267 349.23126Q374.5933 349.59064 373.82767 349.59064Q372.49954 349.59064 371.67142 348.6219Q370.8433 347.65314 370.8433 345.4344Q370.8433 342.9344 371.76517 341.8094Q372.56204 340.825 373.92142 340.825Q374.93704 340.825 375.57767 341.40314Q376.23392 341.96564 376.35892 342.96564ZM372.06204 346.66876Q372.06204 347.21564 372.2808 347.71564Q372.51517 348.2 372.92142 348.46564Q373.3433 348.73126 373.81204 348.73126Q374.4683 348.73126 374.95267 348.2Q375.43704 347.65314 375.43704 346.73126Q375.43704 345.84064 374.95267 345.325Q374.48392 344.8094 373.76517 344.8094Q373.04642 344.8094 372.54642 345.325Q372.06204 345.84064 372.06204 346.66876Z" fill-rule="nonzero"/><path fill="#000000" d="M385.08527 345.21564Q385.08527 343.6844 385.39777 342.7625Q385.71027 341.825 386.31964 341.325Q386.94464 340.825 387.88214 340.825Q388.56964 340.825 389.08527 341.10626Q389.61652 341.3875 389.96027 341.91876Q390.30402 342.4344 390.49152 343.1844Q390.67902 343.9344 390.67902 345.21564Q390.67902 346.73126 390.36652 347.65314Q390.06964 348.575 389.44464 349.09064Q388.83527 349.59064 387.88214 349.59064Q386.64777 349.59064 385.92902 348.7Q385.08527 347.6375 385.08527 345.21564ZM386.1634 345.21564Q386.1634 347.325 386.6634 348.02814Q387.1634 348.73126 387.88214 348.73126Q388.61652 348.73126 389.1009 348.02814Q389.6009 347.325 389.6009 345.21564Q389.6009 343.09064 389.1009 342.40314Q388.61652 341.7 387.86652 341.7Q387.14777 341.7 386.71027 342.3094Q386.1634 343.09064 386.1634 345.21564ZM392.67902 349.45L392.67902 348.2469L393.88214 348.2469L393.88214 349.45L392.67902 349.45ZM400.55402 342.96564L399.50714 343.04376Q399.36652 342.41876 399.11652 342.1375Q398.67902 341.6844 398.05402 341.6844Q397.55402 341.6844 397.1634 341.96564Q396.67902 342.34064 396.38214 343.04376Q396.1009 343.73126 396.08527 345.0125Q396.46027 344.4344 397.00714 344.15314Q397.56964 343.8719 398.17902 343.8719Q399.2259 343.8719 399.96027 344.65314Q400.71027 345.4344 400.71027 346.65314Q400.71027 347.46564 400.3509 348.16876Q400.00714 348.85626 399.39777 349.23126Q398.7884 349.59064 398.02277 349.59064Q396.69464 349.59064 395.86652 348.6219Q395.0384 347.65314 395.0384 345.4344Q395.0384 342.9344 395.96027 341.8094Q396.75714 340.825 398.11652 340.825Q399.13214 340.825 399.77277 341.40314Q400.42902 341.96564 400.55402 342.96564ZM396.25714 346.66876Q396.25714 347.21564 396.4759 347.71564Q396.71027 348.2 397.11652 348.46564Q397.5384 348.73126 398.00714 348.73126Q398.6634 348.73126 399.14777 348.2Q399.63214 347.65314 399.63214 346.73126Q399.63214 345.84064 399.14777 345.325Q398.67902 344.8094 397.96027 344.8094Q397.24152 344.8094 396.74152 345.325Q396.25714 345.84064 396.25714 346.66876ZM402.08527 347.2L403.19464 347.10626Q403.31964 347.91876 403.75714 348.325Q404.21027 348.73126 404.8509 348.73126Q405.6009 348.73126 406.13214 348.15314Q406.6634 347.575 406.6634 346.6375Q406.6634 345.73126 406.14777 345.21564Q405.64777 344.6844 404.81964 344.6844Q404.31964 344.6844 403.89777 344.91876Q403.49152 345.15314 403.25714 345.5125L402.27277 345.3875L403.1009 340.98126L407.38214 340.98126L407.38214 341.98126L403.94464 341.98126L403.49152 344.29376Q404.25714 343.7469 405.1009 343.7469Q406.2259 343.7469 406.99152 344.52814Q407.77277 345.3094 407.77277 346.54376Q407.77277 347.7 407.1009 348.5594Q406.27277 349.59064 404.8509 349.59064Q403.67902 349.59064 402.92902 348.9344Q402.19464 348.27814 402.08527 347.2Z" fill-rule="nonzero"/><path fill="#000000" d="M416.28036 345.21564Q416.28036 343.6844 416.59286 342.7625Q416.90536 341.825 417.51474 341.325Q418.13974 340.825 419.07724 340.825Q419.76474 340.825 420.28036 341.10626Q420.8116 341.3875 421.15536 341.91876Q421.4991 342.4344 421.6866 343.1844Q421.8741 343.9344 421.8741 345.21564Q421.8741 346.73126 421.5616 347.65314Q421.26474 348.575 420.63974 349.09064Q420.03036 349.59064 419.07724 349.59064Q417.84286 349.59064 417.1241 348.7Q416.28036 347.6375 416.28036 345.21564ZM417.3585 345.21564Q417.3585 347.325 417.8585 348.02814Q418.3585 348.73126 419.07724 348.73126Q419.8116 348.73126 420.296 348.02814Q420.796 347.325 420.796 345.21564Q420.796 343.09064 420.296 342.40314Q419.8116 341.7 419.0616 341.7Q418.34286 341.7 417.90536 342.3094Q417.3585 343.09064 417.3585 345.21564ZM423.8741 349.45L423.8741 348.2469L425.07724 348.2469L425.07724 349.45L423.8741 349.45ZM426.34286 341.98126L426.34286 340.96564L431.90536 340.96564L431.90536 341.79376Q431.09286 342.66876 430.28036 344.1219Q429.4835 345.5594 429.046 347.09064Q428.71786 348.16876 428.63974 349.45L427.546 349.45Q427.5616 348.4344 427.9366 346.9969Q428.32724 345.5594 429.03036 344.23126Q429.7491 342.90314 430.5616 341.98126L426.34286 341.98126Z" fill-rule="nonzero"/><path fill="#000000" d="M440.47546 345.21564Q440.47546 343.6844 440.78796 342.7625Q441.10046 341.825 441.70984 341.325Q442.33484 340.825 443.27234 340.825Q443.95984 340.825 444.47546 341.10626Q445.0067 341.3875 445.35046 341.91876Q445.6942 342.4344 445.8817 343.1844Q446.0692 343.9344 446.0692 345.21564Q446.0692 346.73126 445.7567 347.65314Q445.45984 348.575 444.83484 349.09064Q444.22546 349.59064 443.27234 349.59064Q442.03796 349.59064 441.3192 348.7Q440.47546 347.6375 440.47546 345.21564ZM441.5536 345.21564Q441.5536 347.325 442.0536 348.02814Q442.5536 348.73126 443.27234 348.73126Q444.0067 348.73126 444.4911 348.02814Q444.9911 347.325 444.9911 345.21564Q444.9911 343.09064 444.4911 342.40314Q444.0067 341.7 443.2567 341.7Q442.53796 341.7 442.10046 342.3094Q441.5536 343.09064 441.5536 345.21564ZM448.0692 349.45L448.0692 348.2469L449.27234 348.2469L449.27234 349.45L448.0692 349.45ZM450.53796 341.98126L450.53796 340.96564L456.10046 340.96564L456.10046 341.79376Q455.28796 342.66876 454.47546 344.1219Q453.6786 345.5594 453.2411 347.09064Q452.91296 348.16876 452.83484 349.45L451.7411 349.45Q451.7567 348.4344 452.1317 346.9969Q452.52234 345.5594 453.22546 344.23126Q453.9442 342.90314 454.7567 341.98126L450.53796 341.98126ZM457.47546 347.2L458.58484 347.10626Q458.70984 347.91876 459.14734 348.325Q459.60046 348.73126 460.2411 348.73126Q460.9911 348.73126 461.52234 348.15314Q462.0536 347.575 462.0536 346.6375Q462.0536 345.73126 461.53796 345.21564Q461.03796 344.6844 460.20984 344.6844Q459.70984 344.6844 459.28796 344.91876Q458.8817 345.15314 458.64734 345.5125L457.66296 345.3875L458.4911 340.98126L462.77234 340.98126L462.77234 341.98126L459.33484 341.98126L458.8817 344.29376Q459.64734 343.7469 460.4911 343.7469Q461.6161 343.7469 462.3817 344.52814Q463.16296 345.3094 463.16296 346.54376Q463.16296 347.7 462.4911 348.5594Q461.66296 349.59064 460.2411 349.59064Q459.0692 349.59064 458.3192 348.9344Q457.58484 348.27814 457.47546 347.2Z" fill-rule="nonzero"/><path fill="#000000" d="M471.67053 345.21564Q471.67053 343.6844 471.98303 342.7625Q472.29553 341.825 472.9049 341.325Q473.5299 340.825 474.4674 340.825Q475.1549 340.825 475.67053 341.10626Q476.20178 341.3875 476.54553 341.91876Q476.88928 342.4344 477.07678 343.1844Q477.26428 343.9344 477.26428 345.21564Q477.26428 346.73126 476.95178 347.65314Q476.6549 348.575 476.0299 349.09064Q475.42053 349.59064 474.4674 349.59064Q473.23303 349.59064 472.51428 348.7Q471.67053 347.6375 471.67053 345.21564ZM472.74866 345.21564Q472.74866 347.325 473.24866 348.02814Q473.74866 348.73126 474.4674 348.73126Q475.20178 348.73126 475.68616 348.02814Q476.18616 347.325 476.18616 345.21564Q476.18616 343.09064 475.68616 342.40314Q475.20178 341.7 474.45178 341.7Q473.73303 341.7 473.29553 342.3094Q472.74866 343.09064 472.74866 345.21564ZM479.26428 349.45L479.26428 348.2469L480.4674 348.2469L480.4674 349.45L479.26428 349.45ZM483.29553 344.79376Q482.63928 344.54376 482.31116 344.10626Q481.99866 343.65314 481.99866 343.04376Q481.99866 342.10626 482.67053 341.46564Q483.35803 340.825 484.4674 340.825Q485.5924 340.825 486.2799 341.48126Q486.9674 342.1375 486.9674 343.075Q486.9674 343.66876 486.6549 344.10626Q486.3424 344.54376 485.70178 344.79376Q486.49866 345.04376 486.9049 345.6219Q487.31116 346.2 487.31116 346.9969Q487.31116 348.09064 486.5299 348.84064Q485.76428 349.59064 484.48303 349.59064Q483.2174 349.59064 482.43616 348.84064Q481.6549 348.09064 481.6549 346.96564Q481.6549 346.1219 482.07678 345.5594Q482.51428 344.9969 483.29553 344.79376ZM483.07678 342.9969Q483.07678 343.60626 483.4674 343.9969Q483.87366 344.3875 484.49866 344.3875Q485.10803 344.3875 485.49866 344.0125Q485.88928 343.6219 485.88928 343.0594Q485.88928 342.48126 485.48303 342.09064Q485.07678 341.6844 484.48303 341.6844Q483.87366 341.6844 483.4674 342.075Q483.07678 342.46564 483.07678 342.9969ZM482.74866 346.96564Q482.74866 347.41876 482.95178 347.84064Q483.17053 348.2625 483.5924 348.4969Q484.01428 348.73126 484.49866 348.73126Q485.24866 348.73126 485.73303 348.2469Q486.23303 347.7625 486.23303 347.0125Q486.23303 346.2469 485.73303 345.7469Q485.23303 345.2469 484.4674 345.2469Q483.7174 345.2469 483.23303 345.7469Q482.74866 346.23126 482.74866 346.96564Z" fill-rule="nonzero"/><path fill="#000000" d="M495.86563 345.21564Q495.86563 343.6844 496.17813 342.7625Q496.49063 341.825 497.1 341.325Q497.725 340.825 498.6625 340.825Q499.35 340.825 499.86563 341.10626Q500.39688 341.3875 500.74063 341.91876Q501.08438 342.4344 501.27188 343.1844Q501.45938 343.9344 501.45938 345.21564Q501.45938 346.73126 501.14688 347.65314Q500.85 348.575 500.225 349.09064Q499.61563 349.59064 498.6625 349.59064Q497.42813 349.59064 496.70938 348.7Q495.86563 347.6375 495.86563 345.21564ZM496.94376 345.21564Q496.94376 347.325 497.44376 348.02814Q497.94376 348.73126 498.6625 348.73126Q499.39688 348.73126 499.88126 348.02814Q500.38126 347.325 500.38126 345.21564Q500.38126 343.09064 499.88126 342.40314Q499.39688 341.7 498.64688 341.7Q497.92813 341.7 497.49063 342.3094Q496.94376 343.09064 496.94376 345.21564ZM503.45938 349.45L503.45938 348.2469L504.6625 348.2469L504.6625 349.45L503.45938 349.45ZM507.49063 344.79376Q506.83438 344.54376 506.50626 344.10626Q506.19376 343.65314 506.19376 343.04376Q506.19376 342.10626 506.86563 341.46564Q507.55313 340.825 508.6625 340.825Q509.7875 340.825 510.475 341.48126Q511.1625 342.1375 511.1625 343.075Q511.1625 343.66876 510.85 344.10626Q510.5375 344.54376 509.89688 344.79376Q510.69376 345.04376 511.1 345.6219Q511.50626 346.2 511.50626 346.9969Q511.50626 348.09064 510.725 348.84064Q509.95938 349.59064 508.67813 349.59064Q507.4125 349.59064 506.63126 348.84064Q505.85 348.09064 505.85 346.96564Q505.85 346.1219 506.27188 345.5594Q506.70938 344.9969 507.49063 344.79376ZM507.27188 342.9969Q507.27188 343.60626 507.6625 343.9969Q508.06876 344.3875 508.69376 344.3875Q509.30313 344.3875 509.69376 344.0125Q510.08438 343.6219 510.08438 343.0594Q510.08438 342.48126 509.67813 342.09064Q509.27188 341.6844 508.67813 341.6844Q508.06876 341.6844 507.6625 342.075Q507.27188 342.46564 507.27188 342.9969ZM506.94376 346.96564Q506.94376 347.41876 507.14688 347.84064Q507.36563 348.2625 507.7875 348.4969Q508.20938 348.73126 508.69376 348.73126Q509.44376 348.73126 509.92813 348.2469Q510.42813 347.7625 510.42813 347.0125Q510.42813 346.2469 509.92813 345.7469Q509.42813 345.2469 508.6625 345.2469Q507.9125 345.2469 507.42813 345.7469Q506.94376 346.23126 506.94376 346.96564ZM512.8656 347.2L513.975 347.10626Q514.1 347.91876 514.5375 348.325Q514.9906 348.73126 515.6312 348.73126Q516.3812 348.73126 516.9125 348.15314Q517.4437 347.575 517.4437 346.6375Q517.4437 345.73126 516.9281 345.21564Q516.4281 344.6844 515.6 344.6844Q515.1 344.6844 514.6781 344.91876Q514.27185 345.15314 514.0375 345.5125L513.0531 345.3875L513.8812 340.98126L518.1625 340.98126L518.1625 341.98126L514.725 341.98126L514.27185 344.29376Q515.0375 343.7469 515.8812 343.7469Q517.0062 343.7469 517.77185 344.52814Q518.5531 345.3094 518.5531 346.54376Q518.5531 347.7 517.8812 348.5594Q517.0531 349.59064 515.6312 349.59064Q514.45935 349.59064 513.70935 348.9344Q512.975 348.27814 512.8656 347.2Z" fill-rule="nonzero"/><path fill="#000000" d="M527.0607 345.21564Q527.0607 343.6844 527.3732 342.7625Q527.6857 341.825 528.2951 341.325Q528.9201 340.825 529.8576 340.825Q530.5451 340.825 531.0607 341.10626Q531.592 341.3875 531.9357 341.91876Q532.2795 342.4344 532.467 343.1844Q532.6545 343.9344 532.6545 345.21564Q532.6545 346.73126 532.342 347.65314Q532.0451 348.575 531.4201 349.09064Q530.8107 349.59064 529.8576 349.59064Q528.6232 349.59064 527.9045 348.7Q527.0607 347.6375 527.0607 345.21564ZM528.13885 345.21564Q528.13885 347.325 528.63885 348.02814Q529.13885 348.73126 529.8576 348.73126Q530.592 348.73126 531.07635 348.02814Q531.57635 347.325 531.57635 345.21564Q531.57635 343.09064 531.07635 342.40314Q530.592 341.7 529.842 341.7Q529.1232 341.7 528.6857 342.3094Q528.13885 343.09064 528.13885 345.21564ZM534.6545 349.45L534.6545 348.2469L535.8576 348.2469L535.8576 349.45L534.6545 349.45ZM537.217 347.46564L538.2326 347.3719Q538.3576 348.09064 538.717 348.41876Q539.092 348.73126 539.6545 348.73126Q540.13885 348.73126 540.4982 348.5125Q540.8732 348.27814 541.1076 347.91876Q541.342 347.54376 541.4982 346.91876Q541.6545 346.27814 541.6545 345.6219Q541.6545 345.54376 541.6545 345.40314Q541.342 345.90314 540.7951 346.23126Q540.2482 346.54376 539.6076 346.54376Q538.5295 346.54376 537.7951 345.77814Q537.0607 344.9969 537.0607 343.73126Q537.0607 342.41876 537.82635 341.6219Q538.6076 340.825 539.76385 340.825Q540.592 340.825 541.2795 341.27814Q541.9826 341.73126 542.342 342.575Q542.70135 343.40314 542.70135 344.98126Q542.70135 346.6219 542.342 347.60626Q541.9982 348.575 541.2795 349.09064Q540.57635 349.59064 539.63885 349.59064Q538.6232 349.59064 537.9826 349.04376Q537.342 348.48126 537.217 347.46564ZM541.5295 343.66876Q541.5295 342.7625 541.0451 342.23126Q540.57635 341.7 539.88885 341.7Q539.1857 341.7 538.6545 342.27814Q538.13885 342.84064 538.13885 343.7625Q538.13885 344.575 538.63885 345.09064Q539.13885 345.60626 539.8576 345.60626Q540.592 345.60626 541.0607 345.09064Q541.5295 344.575 541.5295 343.66876Z" fill-rule="nonzero"/><path fill="#000000" d="M551.2558 345.21564Q551.2558 343.6844 551.5683 342.7625Q551.8808 341.825 552.4902 341.325Q553.1152 340.825 554.0527 340.825Q554.7402 340.825 555.2558 341.10626Q555.78705 341.3875 556.1308 341.91876Q556.47455 342.4344 556.66205 343.1844Q556.84955 343.9344 556.84955 345.21564Q556.84955 346.73126 556.53705 347.65314Q556.2402 348.575 555.6152 349.09064Q555.0058 349.59064 554.0527 349.59064Q552.8183 349.59064 552.09955 348.7Q551.2558 347.6375 551.2558 345.21564ZM552.3339 345.21564Q552.3339 347.325 552.8339 348.02814Q553.3339 348.73126 554.0527 348.73126Q554.78705 348.73126 555.2714 348.02814Q555.7714 347.325 555.7714 345.21564Q555.7714 343.09064 555.2714 342.40314Q554.78705 341.7 554.03705 341.7Q553.3183 341.7 552.8808 342.3094Q552.3339 343.09064 552.3339 345.21564ZM558.84955 349.45L558.84955 348.2469L560.0527 348.2469L560.0527 349.45L558.84955 349.45ZM561.41205 347.46564L562.4277 347.3719Q562.5527 348.09064 562.91205 348.41876Q563.28705 348.73126 563.84955 348.73126Q564.3339 348.73126 564.6933 348.5125Q565.0683 348.27814 565.3027 347.91876Q565.53705 347.54376 565.6933 346.91876Q565.84955 346.27814 565.84955 345.6219Q565.84955 345.54376 565.84955 345.40314Q565.53705 345.90314 564.9902 346.23126Q564.4433 346.54376 563.8027 346.54376Q562.72455 346.54376 561.9902 345.77814Q561.2558 344.9969 561.2558 343.73126Q561.2558 342.41876 562.0214 341.6219Q562.8027 340.825 563.9589 340.825Q564.78705 340.825 565.47455 341.27814Q566.1777 341.73126 566.53705 342.575Q566.8964 343.40314 566.8964 344.98126Q566.8964 346.6219 566.53705 347.60626Q566.1933 348.575 565.47455 349.09064Q564.7714 349.59064 563.8339 349.59064Q562.8183 349.59064 562.1777 349.04376Q561.53705 348.48126 561.41205 347.46564ZM565.72455 343.66876Q565.72455 342.7625 565.2402 342.23126Q564.7714 341.7 564.0839 341.7Q563.3808 341.7 562.84955 342.27814Q562.3339 342.84064 562.3339 343.7625Q562.3339 344.575 562.8339 345.09064Q563.3339 345.60626 564.0527 345.60626Q564.78705 345.60626 565.2558 345.09064Q565.72455 344.575 565.72455 343.66876ZM568.2558 347.2L569.3652 347.10626Q569.4902 347.91876 569.9277 348.325Q570.3808 348.73126 571.0214 348.73126Q571.7714 348.73126 572.3027 348.15314Q572.8339 347.575 572.8339 346.6375Q572.8339 345.73126 572.3183 345.21564Q571.8183 344.6844 570.9902 344.6844Q570.4902 344.6844 570.0683 344.91876Q569.66205 345.15314 569.4277 345.5125L568.4433 345.3875L569.2714 340.98126L573.5527 340.98126L573.5527 341.98126L570.1152 341.98126L569.66205 344.29376Q570.4277 343.7469 571.2714 343.7469Q572.3964 343.7469 573.16205 344.52814Q573.9433 345.3094 573.9433 346.54376Q573.9433 347.7 573.2714 348.5594Q572.4433 349.59064 571.0214 349.59064Q569.84955 349.59064 569.09955 348.9344Q568.3652 348.27814 568.2558 347.2Z" fill-rule="nonzero"/></svg>