<svg version="1.1" viewBox="0.0 0.0 600.0 371.0" fill="none" stroke="none" stroke-linecap="square" stroke-miterlimit="10" width="600" height="371" xmlns:xlink="http://www.w3.org/1999/xlink" xmlns="http://www.w3.org/2000/svg"><path fill="#ffffff" d="M0 0L600.0 0L600.0 371.0L0 371.0L0 0Z" fill-rule="nonzero"/><path stroke="#333333" stroke-width="1.0" stroke-linecap="butt" d="M45.5 332.5L581.5 332.5" fill-rule="nonzero"/><path stroke="#cccccc" stroke-width="1.0" stroke-linecap="butt" d="M45.5 271.5L581.5 271.5" fill-rule="nonzero"/><path stroke="#cccccc" stroke-width="1.0" stroke-linecap="butt" d="M45.5 209.5L581.5 209.5" fill-rule="nonzero"/><path stroke="#cccccc" stroke-width="1.0" stroke-linecap="butt" d="M45.5 148.5L581.5 148.5" fill-rule="nonzero"/><path stroke="#cccccc" stroke-width="1.0" stroke-linecap="butt" d="M45.5 86.5L581.5 86.5" fill-rule="nonzero"/><path stroke="#cccccc" stroke-width="1.0" stroke-linecap="butt" d="M45.5 25.5L581.5 25.5" fill-rule="nonzero"/><path stroke="#000000" stroke-width="1.0" stroke-linecap="butt" stroke-opacity="0.0" d="M45.5 311.5L581.5 311.5" fill-rule="nonzero"/><path stroke="#000000" stroke-width="1.0" stroke-linecap="butt" stroke-opacity="0.0" d="M45.5 291.5L581.5 291.5" fill-rule="nonzero"/><path stroke="#000000" stroke-width="1.0" stroke-linecap="butt" stroke-opacity="0.0" d="M45.5 250.5L581.5 250.5" fill-rule="nonzero"/><path stroke="#000000" stroke-width="1.0" stroke-linecap="butt" stroke-opacity="0.0" d="M45.5 230.5L581.5 230.5" fill-rule="nonzero"/><path stroke="#000000" stroke-width="1.0" stroke-linecap="butt" stroke-opacity="0.0" d="M45.5 189.5L581.5 189.5" fill-rule="nonzero"/><path stroke="#000000" stroke-width="1.0" stroke-linecap="butt" stroke-opacity="0.0" d="M45.5 168.5L581.5 168.5" fill-rule="nonzero"/><path stroke="#000000" stroke-width="1.0" stroke-linecap="butt" stroke-opacity="0.0" d="M45.5 127.5L581.5 127.5" fill-rule="nonzero"/><path stroke="#000000" stroke-width="1.0" stroke-linecap="butt" stroke-opacity="0.0" d="M45.5 107.5L581.5 107.5" fill-rule="nonzero"/><path stroke="#000000" stroke-width="1.0" stroke-linecap="butt" stroke-opacity="0.0" d="M45.5 66.5L581.5 66.5" fill-rule="nonzero"/><path stroke="#000000" stroke-width="1.0" stroke-linecap="butt" stroke-opacity="0.0" d="M45.5 46.5L581.5 46.5" fill-rule="nonzero"/><clipPath id="id_0"><path d="M45.55 25.55L581.45 25.55L581.45 332.45L45.55 332.45L45.55 25.55Z" clip-rule="nonzero"/></clipPath><path stroke="#000000" stroke-width="2.0" stroke-linecap="butt" stroke-opacity="0.0" clip-path="url(#id_0)" d="M98.0 332.0L64.0 332.0L64.0 93.0C64.0 91.89543 64.89543 91.0 66.0 91.0L96.0 91.0C97.10457 91.0 98.0 91.89543 98.0 93.0Z" fill-rule="nonzero"/><path fill="#4285f4" clip-path="url(#id_0)" d="M98.0 332.0L64.0 332.0L64.0 93.0C64.0 91.89543 64.89543 91.0 66.0 91.0L96.0 91.0C97.10457 91.0 98.0 91.89543 98.0 93.0Z" fill-rule="nonzero"/><path stroke="#000000" stroke-width="2.0" stroke-linecap="butt" stroke-opacity="0.0" clip-path="url(#id_0)" d="M149.0 332.0L115.0 332.0L115.0 67.0C115.0 65.89543 115.89543 65.0 117.0 65.0L147.0 65.0C148.10457 65.0 149.0 65.89543 149.0 67.0Z" fill-rule="nonzero"/><path fill="#4285f4" clip-path="url(#id_0)" d="M149.0 332.0L115.0 332.0L115.0 67.0C115.0 65.89543 115.89543 65.0 117.0 65.0L147.0 65.0C148.10457 65.0 149.0 65.89543 149.0 67.0Z" fill-rule="nonzero"/><path stroke="#000000" stroke-width="2.0" stroke-linecap="butt" stroke-opacity="0.0" clip-path="url(#id_0)" d="M201.0 332.0L167.0 332.0L167.0 90.0C167.0 88.89543 167.89543 88.0 169.0 88.0L199.0 88.0C200.10457 88.0 201.0 88.89543 201.0 90.0Z" fill-rule="nonzero"/><path fill="#4285f4" clip-path="url(#id_0)" d="M201.0 332.0L167.0 332.0L167.0 90.0C167.0 88.89543 167.89543 88.0 169.0 88.0L199.0 88.0C200.10457 88.0 201.0 88.89543 201.0 90.0Z" fill-rule="nonzero"/><path stroke="#000000" stroke-width="2.0" stroke-linecap="butt" stroke-opacity="0.0" clip-path="url(#id_0)" d="M253.0 332.0L219.0 332.0L219.0 89.0C219.0 87.89543 219.89543 87.0 221.0 87.0L251.0 87.0C252.10457 87.0 253.0 87.89543 253.0 89.0Z" fill-rule="nonzero"/><path fill="#4285f4" clip-path="url(#id_0)" d="M253.0 332.0L219.0 332.0L219.0 89.0C219.0 87.89543 219.89543 87.0 221.0 87.0L251.0 87.0C252.10457 87.0 253.0 87.89543 253.0 89.0Z" fill-rule="nonzero"/><path stroke="#000000" stroke-width="2.0" stroke-linecap="butt" stroke-opacity="0.0" clip-path="url(#id_0)" d="M305.0 332.0L271.0 332.0L271.0 110.0C271.0 108.89543 271.89542 108.0 273.0 108.0L303.0 108.0C304.10458 108.0 305.0 108.89543 305.0 110.0Z" fill-rule="nonzero"/><path fill="#4285f4" clip-path="url(#id_0)" d="M305.0 332.0L271.0 332.0L271.0 110.0C271.0 108.89543 271.89542 108.0 273.0 108.0L303.0 108.0C304.10458 108.0 305.0 108.89543 305.0 110.0Z" fill-rule="nonzero"/><path stroke="#000000" stroke-width="2.0" stroke-linecap="butt" stroke-opacity="0.0" clip-path="url(#id_0)" d="M356.0 332.0L322.0 332.0L322.0 122.0C322.0 120.89543 322.89542 120.0 324.0 120.0L354.0 120.0C355.10458 120.0 356.0 120.89543 356.0 122.0Z" fill-rule="nonzero"/><path fill="#4285f4" clip-path="url(#id_0)" d="M356.0 332.0L322.0 332.0L322.0 122.0C322.0 120.89543 322.89542 120.0 324.0 120.0L354.0 120.0C355.10458 120.0 356.0 120.89543 356.0 122.0Z" fill-rule="nonzero"/><path stroke="#000000" stroke-width="2.0" stroke-linecap="butt" stroke-opacity="0.0" clip-path="url(#id_0)" d="M408.0 332.0L374.0 332.0L374.0 132.0C374.0 130.89543 374.89542 130.0 376.0 130.0L406.0 130.0C407.10458 130.0 408.0 130.89543 408.0 132.0Z" fill-rule="nonzero"/><path fill="#4285f4" clip-path="url(#id_0)" d="M408.0 332.0L374.0 332.0L374.0 132.0C374.0 130.89543 374.89542 130.0 376.0 130.0L406.0 130.0C407.10458 130.0 408.0 130.89543 408.0 132.0Z" fill-rule="nonzero"/><path stroke="#000000" stroke-width="2.0" stroke-linecap="butt" stroke-opacity="0.0" clip-path="url(#id_0)" d="M460.0 332.0L426.0 332.0L426.0 140.0C426.0 138.89543 426.89542 138.0 428.0 138.0L458.0 138.0C459.10458 138.0 460.0 138.89543 460.0 140.0Z" fill-rule="nonzero"/><path fill="#4285f4" clip-path="url(#id_0)" d="M460.0 332.0L426.0 332.0L426.0 140.0C426.0 138.89543 426.89542 138.0 428.0 138.0L458.0 138.0C459.10458 138.0 460.0 138.89543 460.0 140.0Z" fill-rule="nonzero"/><path stroke="#000000" stroke-width="2.0" stroke-linecap="butt" stroke-opacity="0.0" clip-path="url(#id_0)" d="M512.0 332.0L478.0 332.0L478.0 144.0C478.0 142.89543 478.89542 142.0 480.0 142.0L510.0 142.0C511.10458 142.0 512.0 142.89543 512.0 144.0Z" fill-rule="nonzero"/><path fill="#4285f4" clip-path="url(#id_0)" d="M512.0 332.0L478.0 332.0L478.0 144.0C478.0 142.89543 478.89542 142.0 480.0 142.0L510.0 142.0C511.10458 142.0 512.0 142.89543 512.0 144.0Z" fill-rule="nonzero"/><path stroke="#000000" stroke-width="2.0" stroke-linecap="butt" stroke-opacity="0.0" clip-path="url(#id_0)" d="M564.0 332.0L530.0 332.0L530.0 152.0C530.0 150.89543 530.89545 150.0 532.0 150.0L562.0 150.0C563.10455 150.0 564.0 150.89543 564.0 152.0Z" fill-rule="nonzero"/><path fill="#4285f4" clip-path="url(#id_0)" d="M564.0 332.0L530.0 332.0L530.0 152.0C530.0 150.89543 530.89545 150.0 532.0 150.0L562.0 150.0C563.10455 150.0 564.0 150.89543 564.0 152.0Z" fill-rule="nonzero"/><path fill="#000000" d="M33.05 332.21564Q33.05 330.6844 33.3625 329.7625Q33.675 328.825 34.284374 328.325Q34.909374 327.825 35.846874 327.825Q36.534374 327.825 37.05 328.10626Q37.58125 328.3875 37.925 328.91876Q38.26875 329.4344 38.45625 330.1844Q38.64375 330.9344 38.64375 332.21564Q38.64375 333.73126 38.33125 334.65314Q38.034374 335.575 37.409374 336.09064Q36.8 336.59064 35.846874 336.59064Q34.6125 336.59064 33.89375 335.7Q33.05 334.6375 33.05 332.21564ZM34.128124 332.21564Q34.128124 334.325 34.628124 335.02814Q35.128124 335.73126 35.846874 335.73126Q36.58125 335.73126 37.065624 335.02814Q37.565624 334.325 37.565624 332.21564Q37.565624 330.09064 37.065624 329.40314Q36.58125 328.7 35.83125 328.7Q35.1125 328.7 34.675 329.3094Q34.128124 330.09064 34.128124 332.21564Z" fill-rule="nonzero"/><path fill="#000000" d="M26.05 272.82L27.159374 272.72626Q27.284374 273.53876 27.721874 273.945Q28.175 274.35126 28.815624 274.35126Q29.565624 274.35126 30.096874 273.77313Q30.628124 273.195 30.628124 272.2575Q30.628124 271.35126 30.1125 270.83563Q29.6125 270.30438 28.784374 270.30438Q28.284374 270.30438 27.8625 270.53876Q27.45625 270.77313 27.221874 271.1325L26.2375 271.0075L27.065624 266.60126L31.346874 266.60126L31.346874 267.60126L27.909374 267.60126L27.45625 269.91376Q28.221874 269.36688 29.065624 269.36688Q30.190624 269.36688 30.95625 270.14813Q31.7375 270.92938 31.7375 272.16376Q31.7375 273.32 31.065624 274.17938Q30.2375 275.21063 28.815624 275.21063Q27.64375 275.21063 26.89375 274.55438Q26.159374 273.89813 26.05 272.82ZM33.05 270.83563Q33.05 269.30438 33.3625 268.3825Q33.675 267.445 34.284374 266.945Q34.909374 266.445 35.846874 266.445Q36.534374 266.445 37.05 266.72626Q37.58125 267.0075 37.925 267.53876Q38.26875 268.05438 38.45625 268.80438Q38.64375 269.55438 38.64375 270.83563Q38.64375 272.35126 38.33125 273.27313Q38.034374 274.195 37.409374 274.71063Q36.8 275.21063 35.846874 275.21063Q34.6125 275.21063 33.89375 274.32Q33.05 273.2575 33.05 270.83563ZM34.128124 270.83563Q34.128124 272.945 34.628124 273.64813Q35.128124 274.35126 35.846874 274.35126Q36.58125 274.35126 37.065624 273.64813Q37.565624 272.945 37.565624 270.83563Q37.565624 268.71063 37.065624 268.02313Q36.58125 267.32 35.83125 267.32Q35.1125 267.32 34.675 267.92938Q34.128124 268.71063 34.128124 270.83563Z" fill-rule="nonzero"/><path fill="#000000" d="M23.01875 213.69L21.971874 213.69L21.971874 206.97125Q21.58125 207.33063 20.95625 207.70563Q20.346874 208.065 19.8625 208.23688L19.8625 207.22125Q20.7375 206.79938 21.39375 206.22125Q22.065624 205.6275 22.346874 205.065L23.01875 205.065L23.01875 213.69ZM26.05 209.45563Q26.05 207.92438 26.3625 207.0025Q26.675 206.065 27.284374 205.565Q27.909374 205.065 28.846874 205.065Q29.534374 205.065 30.05 205.34625Q30.58125 205.6275 30.925 206.15875Q31.26875 206.67438 31.45625 207.42438Q31.64375 208.17438 31.64375 209.45563Q31.64375 210.97125 31.33125 211.89313Q31.034374 212.815 30.409374 213.33063Q29.8 213.83063 28.846874 213.83063Q27.6125 213.83063 26.89375 212.94Q26.05 211.8775 26.05 209.45563ZM27.128124 209.45563Q27.128124 211.565 27.628124 212.26813Q28.128124 212.97125 28.846874 212.97125Q29.58125 212.97125 30.065624 212.26813Q30.565624 211.565 30.565624 209.45563Q30.565624 207.33063 30.065624 206.64313Q29.58125 205.94 28.83125 205.94Q28.1125 205.94 27.675 206.54938Q27.128124 207.33063 27.128124 209.45563ZM33.05 209.45563Q33.05 207.92438 33.3625 207.0025Q33.675 206.065 34.284374 205.565Q34.909374 205.065 35.846874 205.065Q36.534374 205.065 37.05 205.34625Q37.58125 205.6275 37.925 206.15875Q38.26875 206.67438 38.45625 207.42438Q38.64375 208.17438 38.64375 209.45563Q38.64375 210.97125 38.33125 211.89313Q38.034374 212.815 37.409374 213.33063Q36.8 213.83063 35.846874 213.83063Q34.6125 213.83063 33.89375 212.94Q33.05 211.8775 33.05 209.45563ZM34.128124 209.45563Q34.128124 211.565 34.628124 212.26813Q35.128124 212.97125 35.846874 212.97125Q36.58125 212.97125 37.065624 212.26813Q37.565624 211.565 37.565624 209.45563Q37.565624 207.33063 37.065624 206.64313Q36.58125 205.94 35.83125 205.94Q35.1125 205.94 34.675 206.54938Q34.128124 207.33063 34.128124 209.45563Z" fill-rule="nonzero"/><path fill="#000000" d="M23.01875 152.31L21.971874 152.31L21.971874 145.59125Q21.58125 145.95062 20.95625 146.32562Q20.346874 146.685 19.8625 146.85687L19.8625 145.84125Q20.7375 145.41937 21.39375 144.84125Q22.065624 144.2475 22.346874 143.685L23.01875 143.685L23.01875 152.31ZM26.05 150.06L27.159374 149.96625Q27.284374 150.77875 27.721874 151.185Q28.175 151.59125 28.815624 151.59125Q29.565624 151.59125 30.096874 151.01312Q30.628124 150.435 30.628124 149.4975Q30.628124 148.59125 30.1125 148.07562Q29.6125 147.54437 28.784374 147.54437Q28.284374 147.54437 27.8625 147.77875Q27.45625 148.01312 27.221874 148.3725L26.2375 148.2475L27.065624 143.84125L31.346874 143.84125L31.346874 144.84125L27.909374 144.84125L27.45625 147.15375Q28.221874 146.60687 29.065624 146.60687Q30.190624 146.60687 30.95625 147.38812Q31.7375 148.16937 31.7375 149.40375Q31.7375 150.56 31.065624 151.41937Q30.2375 152.45062 28.815624 152.45062Q27.64375 152.45062 26.89375 151.79437Q26.159374 151.13812 26.05 150.06ZM33.05 148.07562Q33.05 146.54437 33.3625 145.6225Q33.675 144.685 34.284374 144.185Q34.909374 143.685 35.846874 143.685Q36.534374 143.685 37.05 143.96625Q37.58125 144.2475 37.925 144.77875Q38.26875 145.29437 38.45625 146.04437Q38.64375 146.79437 38.64375 148.07562Q38.64375 149.59125 38.33125 150.51312Q38.034374 151.435 37.409374 151.95062Q36.8 152.45062 35.846874 152.45062Q34.6125 152.45062 33.89375 151.56Q33.05 150.4975 33.05 148.07562ZM34.128124 148.07562Q34.128124 150.185 34.628124 150.88812Q35.128124 151.59125 35.846874 151.59125Q36.58125 151.59125 37.065624 150.88812Q37.565624 150.185 37.565624 148.07562Q37.565624 145.95062 37.065624 145.26312Q36.58125 144.56 35.83125 144.56Q35.1125 144.56 34.675 145.16937Q34.128124 145.95062 34.128124 148.07562Z" fill-rule="nonzero"/><path fill="#000000" d="M24.596874 89.914375L24.596874 90.93L18.909374 90.93Q18.909374 90.555 19.034374 90.195625Q19.253124 89.6175 19.721874 89.055Q20.20625 88.4925 21.1125 87.758125Q22.51875 86.601875 23.003124 85.93Q23.503124 85.258125 23.503124 84.664375Q23.503124 84.039375 23.05 83.6175Q22.596874 83.18 21.878124 83.18Q21.1125 83.18 20.659374 83.633125Q20.20625 84.08625 20.190624 84.89875L19.1125 84.789375Q19.221874 83.570625 19.940624 82.945625Q20.675 82.305 21.909374 82.305Q23.14375 82.305 23.8625 82.9925Q24.58125 83.68 24.58125 84.695625Q24.58125 85.21125 24.3625 85.71125Q24.159374 86.195625 23.659374 86.758125Q23.175 87.305 22.05 88.258125Q21.096874 89.055 20.815624 89.351875Q20.55 89.633125 20.378124 89.914375L24.596874 89.914375ZM26.05 86.695625Q26.05 85.164375 26.3625 84.2425Q26.675 83.305 27.284374 82.805Q27.909374 82.305 28.846874 82.305Q29.534374 82.305 30.05 82.58625Q30.58125 82.8675 30.925 83.39875Q31.26875 83.914375 31.45625 84.664375Q31.64375 85.414375 31.64375 86.695625Q31.64375 88.21125 31.33125 89.133125Q31.034374 90.055 30.409374 90.570625Q29.8 91.070625 28.846874 91.070625Q27.6125 91.070625 26.89375 90.18Q26.05 89.1175 26.05 86.695625ZM27.128124 86.695625Q27.128124 88.805 27.628124 89.508125Q28.128124 90.21125 28.846874 90.21125Q29.58125 90.21125 30.065624 89.508125Q30.565624 88.805 30.565624 86.695625Q30.565624 84.570625 30.065624 83.883125Q29.58125 83.18 28.83125 83.18Q28.1125 83.18 27.675 83.789375Q27.128124 84.570625 27.128124 86.695625ZM33.05 86.695625Q33.05 85.164375 33.3625 84.2425Q33.675 83.305 34.284374 82.805Q34.909374 82.305 35.846874 82.305Q36.534374 82.305 37.05 82.58625Q37.58125 82.8675 37.925 83.39875Q38.26875 83.914375 38.45625 84.664375Q38.64375 85.414375 38.64375 86.695625Q38.64375 88.21125 38.33125 89.133125Q38.034374 90.055 37.409374 90.570625Q36.8 91.070625 35.846874 91.070625Q34.6125 91.070625 33.89375 90.18Q33.05 89.1175 33.05 86.695625ZM34.128124 86.695625Q34.128124 88.805 34.628124 89.508125Q35.128124 90.21125 35.846874 90.21125Q36.58125 90.21125 37.065624 89.508125Q37.565624 88.805 37.565624 86.695625Q37.565624 84.570625 37.065624 83.883125Q36.58125 83.18 35.83125 83.18Q35.1125 83.18 34.675 83.789375Q34.128124 84.570625 34.128124 86.695625Z" fill-rule="nonzero"/><path fill="#000000" d="M24.596874 28.534374L24.596874 29.55L18.909374 29.55Q18.909374 29.175 19.034374 28.815624Q19.253124 28.2375 19.721874 27.675Q20.20625 27.1125 21.1125 26.378124Q22.51875 25.221874 23.003124 24.55Q23.503124 23.878124 23.503124 23.284374Q23.503124 22.659374 23.05 22.2375Q22.596874 21.8 21.878124 21.8Q21.1125 21.8 20.659374 22.253124Q20.20625 22.70625 20.190624 23.51875L19.1125 23.409374Q19.221874 22.190624 19.940624 21.565624Q20.675 20.925 21.909374 20.925Q23.14375 20.925 23.8625 21.6125Q24.58125 22.3 24.58125 23.315624Q24.58125 23.83125 24.3625 24.33125Q24.159374 24.815624 23.659374 25.378124Q23.175 25.925 22.05 26.878124Q21.096874 27.675 20.815624 27.971874Q20.55 28.253124 20.378124 28.534374L24.596874 28.534374ZM26.05 27.3L27.159374 27.20625Q27.284374 28.01875 27.721874 28.425Q28.175 28.83125 28.815624 28.83125Q29.565624 28.83125 30.096874 28.253124Q30.628124 27.675 30.628124 26.7375Q30.628124 25.83125 30.1125 25.315624Q29.6125 24.784374 28.784374 24.784374Q28.284374 24.784374 27.8625 25.01875Q27.45625 25.253124 27.221874 25.6125L26.2375 25.4875L27.065624 21.08125L31.346874 21.08125L31.346874 22.08125L27.909374 22.08125L27.45625 24.39375Q28.221874 23.846874 29.065624 23.846874Q30.190624 23.846874 30.95625 24.628124Q31.7375 25.409374 31.7375 26.64375Q31.7375 27.8 31.065624 28.659374Q30.2375 29.690624 28.815624 29.690624Q27.64375 29.690624 26.89375 29.034374Q26.159374 28.378124 26.05 27.3ZM33.05 25.315624Q33.05 23.784374 33.3625 22.8625Q33.675 21.925 34.284374 21.425Q34.909374 20.925 35.846874 20.925Q36.534374 20.925 37.05 21.20625Q37.58125 21.4875 37.925 22.01875Q38.26875 22.534374 38.45625 23.284374Q38.64375 24.034374 38.64375 25.315624Q38.64375 26.83125 38.33125 27.753124Q38.034374 28.675 37.409374 29.190624Q36.8 29.690624 35.846874 29.690624Q34.6125 29.690624 33.89375 28.8Q33.05 27.7375 33.05 25.315624ZM34.128124 25.315624Q34.128124 27.425 34.628124 28.128124Q35.128124 28.83125 35.846874 28.83125Q36.58125 28.83125 37.065624 28.128124Q37.565624 27.425 37.565624 25.315624Q37.565624 23.190624 37.065624 22.503124Q36.58125 21.8 35.83125 21.8Q35.1125 21.8 34.675 22.409374Q34.128124 23.190624 34.128124 25.315624Z" fill-rule="nonzero"/><path fill="#000000" d="M72.5 345.21564Q72.5 343.6844 72.8125 342.7625Q73.125 341.825 73.734375 341.325Q74.359375 340.825 75.296875 340.825Q75.984375 340.825 76.5 341.10626Q77.03125 341.3875 77.375 341.91876Q77.71875 342.4344 77.90625 343.1844Q78.09375 343.9344 78.09375 345.21564Q78.09375 346.73126 77.78125 347.65314Q77.484375 348.575 76.859375 349.09064Q76.25 349.59064 75.296875 349.59064Q74.0625 349.59064 73.34375 348.7Q72.5 347.6375 72.5 345.21564ZM73.578125 345.21564Q73.578125 347.325 74.078125 348.02814Q74.578125 348.73126 75.296875 348.73126Q76.03125 348.73126 76.515625 348.02814Q77.015625 347.325 77.015625 345.21564Q77.015625 343.09064 76.515625 342.40314Q76.03125 341.7 75.28125 341.7Q74.5625 341.7 74.125 342.3094Q73.578125 343.09064 73.578125 345.21564ZM80.09375 349.45L80.09375 348.2469L81.296875 348.2469L81.296875 349.45L80.09375 349.45ZM87.96875 342.96564L86.921875 343.04376Q86.78125 342.41876 86.53125 342.1375Q86.09375 341.6844 85.46875 341.6844Q84.96875 341.6844 84.578125 341.96564Q84.09375 342.34064 83.796875 343.04376Q83.515625 343.73126 83.5 345.0125Q83.875 344.4344 84.421875 344.15314Q84.984375 343.8719 85.59375 343.8719Q86.640625 343.8719 87.375 344.65314Q88.125 345.4344 88.125 346.65314Q88.125 347.46564 87.765625 348.16876Q87.421875 348.85626 86.8125 349.23126Q86.203125 349.59064 85.4375 349.59064Q84.109375 349.59064 83.28125 348.6219Q82.453125 347.65314 82.453125 345.4344Q82.453125 342.9344 83.375 341.8094Q84.171875 340.825 85.53125 340.825Q86.546875 340.825 87.1875 341.40314Q87.84375 341.96564 87.96875 342.96564ZM83.671875 346.66876Q83.671875 347.21564 83.890625 347.71564Q84.125 348.2 84.53125 348.46564Q84.953125 348.73126 85.421875 348.73126Q86.078125 348.73126 86.5625 348.2Q87.046875 347.65314 87.046875 346.73126Q87.046875 345.84064 86.5625 345.325Q86.09375 344.8094 85.375 344.8094Q84.65625 344.8094 84.15625 345.325Q83.671875 345.84064 83.671875 346.66876Z" fill-rule="nonzero"/><path fill="#000000" d="M120.77778 345.21564Q120.77778 343.6844 121.09028 342.7625Q121.40278 341.825 122.01215 341.325Q122.63715 340.825 123.57465 340.825Q124.26215 340.825 124.77778 341.10626Q125.30903 341.3875 125.65278 341.91876Q125.99653 342.4344 126.18403 343.1844Q126.37153 343.9344 126.37153 345.21564Q126.37153 346.73126 126.05903 347.65314Q125.76215 348.575 125.13715 349.09064Q124.52778 349.59064 123.57465 349.59064Q122.34028 349.59064 121.62153 348.7Q120.77778 347.6375 120.77778 345.21564ZM121.8559 345.21564Q121.8559 347.325 122.3559 348.02814Q122.8559 348.73126 123.57465 348.73126Q124.30903 348.73126 124.7934 348.02814Q125.2934 347.325 125.2934 345.21564Q125.2934 343.09064 124.7934 342.40314Q124.30903 341.7 123.55903 341.7Q122.84028 341.7 122.40278 342.3094Q121.8559 343.09064 121.8559 345.21564ZM128.37152 349.45L128.37152 348.2469L129.57465 348.2469L129.57465 349.45L128.37152 349.45ZM136.24652 342.96564L135.19965 343.04376Q135.05902 342.41876 134.80902 342.1375Q134.37152 341.6844 133.74652 341.6844Q133.24652 341.6844 132.8559 341.96564Q132.37152 342.34064 132.07465 343.04376Q131.7934 343.73126 131.77777 345.0125Q132.15277 344.4344 132.69965 344.15314Q133.26215 343.8719 133.87152 343.8719Q134.9184 343.8719 135.65277 344.65314Q136.40277 345.4344 136.40277 346.65314Q136.40277 347.46564 136.0434 348.16876Q135.69965 348.85626 135.09027 349.23126Q134.4809 349.59064 133.71527 349.59064Q132.38715 349.59064 131.55902 348.6219Q130.7309 347.65314 130.7309 345.4344Q130.7309 342.9344 131.65277 341.8094Q132.44965 340.825 133.80902 340.825Q134.82465 340.825 135.46527 341.40314Q136.12152 341.96564 136.24652 342.96564ZM131.94965 346.66876Q131.94965 347.21564 132.1684 347.71564Q132.40277 348.2 132.80902 348.46564Q133.2309 348.73126 133.69965 348.73126Q134.3559 348.73126 134.84027 348.2Q135.32465 347.65314 135.32465 346.73126Q135.32465 345.84064 134.84027 345.325Q134.37152 344.8094 133.65277 344.8094Q132.93402 344.8094 132.43402 345.325Q131.94965 345.84064 131.94965 346.66876ZM141.74652 349.45L140.69965 349.45L140.69965 342.73126Q140.30902 343.09064 139.68402 343.46564Q139.07465 343.825 138.59027 343.9969L138.59027 342.98126Q139.46527 342.5594 140.12152 341.98126Q140.7934 341.3875 141.07465 340.825L141.74652 340.825L141.74652 349.45Z" fill-rule="nonzero"/><path fill="#000000" d="M172.55556 345.21564Q172.55556 343.6844 172.86806 342.7625Q173.18056 341.825 173.78993 341.325Q174.41493 340.825 175.35243 340.825Q176.03993 340.825 176.55556 341.10626Q177.0868 341.3875 177.43056 341.91876Q177.7743 342.4344 177.9618 343.1844Q178.1493 343.9344 178.1493 345.21564Q178.1493 346.73126 177.8368 347.65314Q177.53993 348.575 176.91493 349.09064Q176.30556 349.59064 175.35243 349.59064Q174.11806 349.59064 173.3993 348.7Q172.55556 347.6375 172.55556 345.21564ZM173.63368 345.21564Q173.63368 347.325 174.13368 348.02814Q174.63368 348.73126 175.35243 348.73126Q176.0868 348.73126 176.57118 348.02814Q177.07118 347.325 177.07118 345.21564Q177.07118 343.09064 176.57118 342.40314Q176.0868 341.7 175.3368 341.7Q174.61806 341.7 174.18056 342.3094Q173.63368 343.09064 173.63368 345.21564ZM180.1493 349.45L180.1493 348.2469L181.35243 348.2469L181.35243 349.45L180.1493 349.45ZM188.0243 342.96564L186.97743 343.04376Q186.8368 342.41876 186.5868 342.1375Q186.1493 341.6844 185.5243 341.6844Q185.0243 341.6844 184.63368 341.96564Q184.1493 342.34064 183.85243 343.04376Q183.57118 343.73126 183.55556 345.0125Q183.93056 344.4344 184.47743 344.15314Q185.03993 343.8719 185.6493 343.8719Q186.69618 343.8719 187.43056 344.65314Q188.18056 345.4344 188.18056 346.65314Q188.18056 347.46564 187.82118 348.16876Q187.47743 348.85626 186.86806 349.23126Q186.25868 349.59064 185.49306 349.59064Q184.16493 349.59064 183.3368 348.6219Q182.50868 347.65314 182.50868 345.4344Q182.50868 342.9344 183.43056 341.8094Q184.22743 340.825 185.5868 340.825Q186.60243 340.825 187.24306 341.40314Q187.8993 341.96564 188.0243 342.96564ZM183.72743 346.66876Q183.72743 347.21564 183.94618 347.71564Q184.18056 348.2 184.5868 348.46564Q185.00868 348.73126 185.47743 348.73126Q186.13368 348.73126 186.61806 348.2Q187.10243 347.65314 187.10243 346.73126Q187.10243 345.84064 186.61806 345.325Q186.1493 344.8094 185.43056 344.8094Q184.7118 344.8094 184.2118 345.325Q183.72743 345.84064 183.72743 346.66876ZM195.10243 348.4344L195.10243 349.45L189.41493 349.45Q189.41493 349.075 189.53993 348.71564Q189.75868 348.1375 190.22743 347.575Q190.7118 347.0125 191.61806 346.27814Q193.0243 345.1219 193.50868 344.45Q194.00868 343.77814 194.00868 343.1844Q194.00868 342.5594 193.55556 342.1375Q193.10243 341.7 192.38368 341.7Q191.61806 341.7 191.16493 342.15314Q190.7118 342.60626 190.69618 343.41876L189.61806 343.3094Q189.72743 342.09064 190.44618 341.46564Q191.18056 340.825 192.41493 340.825Q193.6493 340.825 194.36806 341.5125Q195.0868 342.2 195.0868 343.21564Q195.0868 343.73126 194.86806 344.23126Q194.66493 344.71564 194.16493 345.27814Q193.68056 345.825 192.55556 346.77814Q191.60243 347.575 191.32118 347.8719Q191.05556 348.15314 190.88368 348.4344L195.10243 348.4344Z" fill-rule="nonzero"/><path fill="#000000" d="M224.33333 345.21564Q224.33333 343.6844 224.64583 342.7625Q224.95833 341.825 225.5677 341.325Q226.1927 340.825 227.1302 340.825Q227.8177 340.825 228.33333 341.10626Q228.86458 341.3875 229.20833 341.91876Q229.55208 342.4344 229.73958 343.1844Q229.92708 343.9344 229.92708 345.21564Q229.92708 346.73126 229.61458 347.65314Q229.3177 348.575 228.6927 349.09064Q228.08333 349.59064 227.1302 349.59064Q225.89583 349.59064 225.17708 348.7Q224.33333 347.6375 224.33333 345.21564ZM225.41145 345.21564Q225.41145 347.325 225.91145 348.02814Q226.41145 348.73126 227.1302 348.73126Q227.86458 348.73126 228.34895 348.02814Q228.84895 347.325 228.84895 345.21564Q228.84895 343.09064 228.34895 342.40314Q227.86458 341.7 227.11458 341.7Q226.39583 341.7 225.95833 342.3094Q225.41145 343.09064 225.41145 345.21564ZM231.92708 349.45L231.92708 348.2469L233.1302 348.2469L233.1302 349.45L231.92708 349.45ZM239.80208 342.96564L238.7552 343.04376Q238.61458 342.41876 238.36458 342.1375Q237.92708 341.6844 237.30208 341.6844Q236.80208 341.6844 236.41145 341.96564Q235.92708 342.34064 235.6302 343.04376Q235.34895 343.73126 235.33333 345.0125Q235.70833 344.4344 236.2552 344.15314Q236.8177 343.8719 237.42708 343.8719Q238.47395 343.8719 239.20833 344.65314Q239.95833 345.4344 239.95833 346.65314Q239.95833 347.46564 239.59895 348.16876Q239.2552 348.85626 238.64583 349.23126Q238.03645 349.59064 237.27083 349.59064Q235.9427 349.59064 235.11458 348.6219Q234.28645 347.65314 234.28645 345.4344Q234.28645 342.9344 235.20833 341.8094Q236.0052 340.825 237.36458 340.825Q238.3802 340.825 239.02083 341.40314Q239.67708 341.96564 239.80208 342.96564ZM235.5052 346.66876Q235.5052 347.21564 235.72395 347.71564Q235.95833 348.2 236.36458 348.46564Q236.78645 348.73126 237.2552 348.73126Q237.91145 348.73126 238.39583 348.2Q238.8802 347.65314 238.8802 346.73126Q238.8802 345.84064 238.39583 345.325Q237.92708 344.8094 237.20833 344.8094Q236.48958 344.8094 235.98958 345.325Q235.5052 345.84064 235.5052 346.66876ZM241.33333 347.1844L242.39583 347.04376Q242.5677 347.9344 243.0052 348.34064Q243.4427 348.73126 244.0677 348.73126Q244.8177 348.73126 245.33333 348.21564Q245.84895 347.7 245.84895 346.9344Q245.84895 346.21564 245.36458 345.7469Q244.89583 345.2625 244.16145 345.2625Q243.86458 345.2625 243.41145 345.3875L243.53645 344.45Q243.64583 344.46564 243.70833 344.46564Q244.3802 344.46564 244.91145 344.1219Q245.45833 343.7625 245.45833 343.02814Q245.45833 342.45 245.0677 342.075Q244.67708 341.6844 244.05208 341.6844Q243.4427 341.6844 243.02083 342.075Q242.61458 342.46564 242.5052 343.23126L241.4427 343.04376Q241.6302 341.9969 242.3177 341.41876Q243.0052 340.825 244.02083 340.825Q244.72395 340.825 245.3177 341.1375Q245.91145 341.4344 246.22395 341.95Q246.53645 342.46564 246.53645 343.0594Q246.53645 343.60626 246.23958 344.075Q245.9427 344.52814 245.36458 344.79376Q246.11458 344.96564 246.53645 345.52814Q246.95833 346.075 246.95833 346.91876Q246.95833 348.04376 246.1302 348.825Q245.3177 349.60626 244.0677 349.60626Q242.9427 349.60626 242.1927 348.9344Q241.4427 348.2469 241.33333 347.1844Z" fill-rule="nonzero"/><path fill="#000000" d="M276.1111 345.21564Q276.1111 343.6844 276.4236 342.7625Q276.7361 341.825 277.3455 341.325Q277.9705 340.825 278.908 340.825Q279.5955 340.825 280.1111 341.10626Q280.64236 341.3875 280.9861 341.91876Q281.32986 342.4344 281.51736 343.1844Q281.70486 343.9344 281.70486 345.21564Q281.70486 346.73126 281.39236 347.65314Q281.0955 348.575 280.4705 349.09064Q279.8611 349.59064 278.908 349.59064Q277.6736 349.59064 276.95486 348.7Q276.1111 347.6375 276.1111 345.21564ZM277.18924 345.21564Q277.18924 347.325 277.68924 348.02814Q278.18924 348.73126 278.908 348.73126Q279.64236 348.73126 280.12674 348.02814Q280.62674 347.325 280.62674 345.21564Q280.62674 343.09064 280.12674 342.40314Q279.64236 341.7 278.89236 341.7Q278.1736 341.7 277.7361 342.3094Q277.18924 343.09064 277.18924 345.21564ZM283.70486 349.45L283.70486 348.2469L284.908 348.2469L284.908 349.45L283.70486 349.45ZM291.57986 342.96564L290.533 343.04376Q290.39236 342.41876 290.14236 342.1375Q289.70486 341.6844 289.07986 341.6844Q288.57986 341.6844 288.18924 341.96564Q287.70486 342.34064 287.408 343.04376Q287.12674 343.73126 287.1111 345.0125Q287.4861 344.4344 288.033 344.15314Q288.5955 343.8719 289.20486 343.8719Q290.25174 343.8719 290.9861 344.65314Q291.7361 345.4344 291.7361 346.65314Q291.7361 347.46564 291.37674 348.16876Q291.033 348.85626 290.4236 349.23126Q289.81424 349.59064 289.0486 349.59064Q287.7205 349.59064 286.89236 348.6219Q286.06424 347.65314 286.06424 345.4344Q286.06424 342.9344 286.9861 341.8094Q287.783 340.825 289.14236 340.825Q290.158 340.825 290.7986 341.40314Q291.45486 341.96564 291.57986 342.96564ZM287.283 346.66876Q287.283 347.21564 287.50174 347.71564Q287.7361 348.2 288.14236 348.46564Q288.56424 348.73126 289.033 348.73126Q289.68924 348.73126 290.1736 348.2Q290.658 347.65314 290.658 346.73126Q290.658 345.84064 290.1736 345.325Q289.70486 344.8094 288.9861 344.8094Q288.26736 344.8094 287.76736 345.325Q287.283 345.84064 287.283 346.66876ZM296.4861 349.45L296.4861 347.3875L292.76736 347.3875L292.76736 346.41876L296.68924 340.85626L297.5486 340.85626L297.5486 346.41876L298.70486 346.41876L298.70486 347.3875L297.5486 347.3875L297.5486 349.45L296.4861 349.45ZM296.4861 346.41876L296.4861 342.5594L293.7986 346.41876L296.4861 346.41876Z" fill-rule="nonzero"/><path fill="#000000" d="M327.8889 345.21564Q327.8889 343.6844 328.2014 342.7625Q328.5139 341.825 329.12326 341.325Q329.74826 340.825 330.68576 340.825Q331.37326 340.825 331.8889 341.10626Q332.42014 341.3875 332.7639 341.91876Q333.10764 342.4344 333.29514 343.1844Q333.48264 343.9344 333.48264 345.21564Q333.48264 346.73126 333.17014 347.65314Q332.87326 348.575 332.24826 349.09064Q331.6389 349.59064 330.68576 349.59064Q329.4514 349.59064 328.73264 348.7Q327.8889 347.6375 327.8889 345.21564ZM328.967 345.21564Q328.967 347.325 329.467 348.02814Q329.967 348.73126 330.68576 348.73126Q331.42014 348.73126 331.9045 348.02814Q332.4045 347.325 332.4045 345.21564Q332.4045 343.09064 331.9045 342.40314Q331.42014 341.7 330.67014 341.7Q329.9514 341.7 329.5139 342.3094Q328.967 343.09064 328.967 345.21564ZM335.48264 349.45L335.48264 348.2469L336.68576 348.2469L336.68576 349.45L335.48264 349.45ZM343.35764 342.96564L342.31076 343.04376Q342.17014 342.41876 341.92014 342.1375Q341.48264 341.6844 340.85764 341.6844Q340.35764 341.6844 339.967 341.96564Q339.48264 342.34064 339.18576 343.04376Q338.9045 343.73126 338.8889 345.0125Q339.2639 344.4344 339.81076 344.15314Q340.37326 343.8719 340.98264 343.8719Q342.0295 343.8719 342.7639 344.65314Q343.5139 345.4344 343.5139 346.65314Q343.5139 347.46564 343.1545 348.16876Q342.81076 348.85626 342.2014 349.23126Q341.592 349.59064 340.8264 349.59064Q339.49826 349.59064 338.67014 348.6219Q337.842 347.65314 337.842 345.4344Q337.842 342.9344 338.7639 341.8094Q339.56076 340.825 340.92014 340.825Q341.93576 340.825 342.5764 341.40314Q343.23264 341.96564 343.35764 342.96564ZM339.06076 346.66876Q339.06076 347.21564 339.2795 347.71564Q339.5139 348.2 339.92014 348.46564Q340.342 348.73126 340.81076 348.73126Q341.467 348.73126 341.9514 348.2Q342.43576 347.65314 342.43576 346.73126Q342.43576 345.84064 341.9514 345.325Q341.48264 344.8094 340.7639 344.8094Q340.04514 344.8094 339.54514 345.325Q339.06076 345.84064 339.06076 346.66876ZM344.8889 347.2L345.99826 347.10626Q346.12326 347.91876 346.56076 348.325Q347.0139 348.73126 347.6545 348.73126Q348.4045 348.73126 348.93576 348.15314Q349.467 347.575 349.467 346.6375Q349.467 345.73126 348.9514 345.21564Q348.4514 344.6844 347.62326 344.6844Q347.12326 344.6844 346.7014 344.91876Q346.29514 345.15314 346.06076 345.5125L345.0764 345.3875L345.9045 340.98126L350.18576 340.98126L350.18576 341.98126L346.74826 341.98126L346.29514 344.29376Q347.06076 343.7469 347.9045 343.7469Q349.0295 343.7469 349.79514 344.52814Q350.5764 345.3094 350.5764 346.54376Q350.5764 347.7 349.9045 348.5594Q349.0764 349.59064 347.6545 349.59064Q346.48264 349.59064 345.73264 348.9344Q344.99826 348.27814 344.8889 347.2Z" fill-rule="nonzero"/><path fill="#000000" d="M379.66666 345.21564Q379.66666 343.6844 379.97916 342.7625Q380.29166 341.825 380.90103 341.325Q381.52603 340.825 382.46353 340.825Q383.15103 340.825 383.66666 341.10626Q384.1979 341.3875 384.54166 341.91876Q384.8854 342.4344 385.0729 343.1844Q385.2604 343.9344 385.2604 345.21564Q385.2604 346.73126 384.9479 347.65314Q384.65103 348.575 384.02603 349.09064Q383.41666 349.59064 382.46353 349.59064Q381.22916 349.59064 380.5104 348.7Q379.66666 347.6375 379.66666 345.21564ZM380.74478 345.21564Q380.74478 347.325 381.24478 348.02814Q381.74478 348.73126 382.46353 348.73126Q383.1979 348.73126 383.68228 348.02814Q384.18228 347.325 384.18228 345.21564Q384.18228 343.09064 383.68228 342.40314Q383.1979 341.7 382.4479 341.7Q381.72916 341.7 381.29166 342.3094Q380.74478 343.09064 380.74478 345.21564ZM387.2604 349.45L387.2604 348.2469L388.46353 348.2469L388.46353 349.45L387.2604 349.45ZM395.1354 342.96564L394.08853 343.04376Q393.9479 342.41876 393.6979 342.1375Q393.2604 341.6844 392.6354 341.6844Q392.1354 341.6844 391.74478 341.96564Q391.2604 342.34064 390.96353 343.04376Q390.68228 343.73126 390.66666 345.0125Q391.04166 344.4344 391.58853 344.15314Q392.15103 343.8719 392.7604 343.8719Q393.80728 343.8719 394.54166 344.65314Q395.29166 345.4344 395.29166 346.65314Q395.29166 347.46564 394.93228 348.16876Q394.58853 348.85626 393.97916 349.23126Q393.36978 349.59064 392.60416 349.59064Q391.27603 349.59064 390.4479 348.6219Q389.61978 347.65314 389.61978 345.4344Q389.61978 342.9344 390.54166 341.8094Q391.33853 340.825 392.6979 340.825Q393.71353 340.825 394.35416 341.40314Q395.0104 341.96564 395.1354 342.96564ZM390.83853 346.66876Q390.83853 347.21564 391.05728 347.71564Q391.29166 348.2 391.6979 348.46564Q392.11978 348.73126 392.58853 348.73126Q393.24478 348.73126 393.72916 348.2Q394.21353 347.65314 394.21353 346.73126Q394.21353 345.84064 393.72916 345.325Q393.2604 344.8094 392.54166 344.8094Q391.8229 344.8094 391.3229 345.325Q390.83853 345.84064 390.83853 346.66876ZM402.1354 342.96564L401.08853 343.04376Q400.9479 342.41876 400.6979 342.1375Q400.2604 341.6844 399.6354 341.6844Q399.1354 341.6844 398.74478 341.96564Q398.2604 342.34064 397.96353 343.04376Q397.68228 343.73126 397.66666 345.0125Q398.04166 344.4344 398.58853 344.15314Q399.15103 343.8719 399.7604 343.8719Q400.80728 343.8719 401.54166 344.65314Q402.29166 345.4344 402.29166 346.65314Q402.29166 347.46564 401.93228 348.16876Q401.58853 348.85626 400.97916 349.23126Q400.36978 349.59064 399.60416 349.59064Q398.27603 349.59064 397.4479 348.6219Q396.61978 347.65314 396.61978 345.4344Q396.61978 342.9344 397.54166 341.8094Q398.33853 340.825 399.6979 340.825Q400.71353 340.825 401.35416 341.40314Q402.0104 341.96564 402.1354 342.96564ZM397.83853 346.66876Q397.83853 347.21564 398.05728 347.71564Q398.29166 348.2 398.6979 348.46564Q399.11978 348.73126 399.58853 348.73126Q400.24478 348.73126 400.72916 348.2Q401.21353 347.65314 401.21353 346.73126Q401.21353 345.84064 400.72916 345.325Q400.2604 344.8094 399.54166 344.8094Q398.8229 344.8094 398.3229 345.325Q397.83853 345.84064 397.83853 346.66876Z" fill-rule="nonzero"/><path fill="#000000" d="M431.44446 345.21564Q431.44446 343.6844 431.75696 342.7625Q432.06946 341.825 432.67883 341.325Q433.30383 340.825 434.24133 340.825Q434.92883 340.825 435.44446 341.10626Q435.9757 341.3875 436.31946 341.91876Q436.6632 342.4344 436.8507 343.1844Q437.0382 343.9344 437.0382 345.21564Q437.0382 346.73126 436.7257 347.65314Q436.42883 348.575 435.80383 349.09064Q435.19446 349.59064 434.24133 349.59064Q433.00696 349.59064 432.2882 348.7Q431.44446 347.6375 431.44446 345.21564ZM432.52258 345.21564Q432.52258 347.325 433.02258 348.02814Q433.52258 348.73126 434.24133 348.73126Q434.9757 348.73126 435.46008 348.02814Q435.96008 347.325 435.96008 345.21564Q435.96008 343.09064 435.46008 342.40314Q434.9757 341.7 434.2257 341.7Q433.50696 341.7 433.06946 342.3094Q432.52258 343.09064 432.52258 345.21564ZM439.0382 349.45L439.0382 348.2469L440.24133 348.2469L440.24133 349.45L439.0382 349.45ZM446.9132 342.96564L445.86633 343.04376Q445.7257 342.41876 445.4757 342.1375Q445.0382 341.6844 444.4132 341.6844Q443.9132 341.6844 443.52258 341.96564Q443.0382 342.34064 442.74133 343.04376Q442.46008 343.73126 442.44446 345.0125Q442.81946 344.4344 443.36633 344.15314Q443.92883 343.8719 444.5382 343.8719Q445.58508 343.8719 446.31946 344.65314Q447.06946 345.4344 447.06946 346.65314Q447.06946 347.46564 446.71008 348.16876Q446.36633 348.85626 445.75696 349.23126Q445.14758 349.59064 444.38196 349.59064Q443.05383 349.59064 442.2257 348.6219Q441.39758 347.65314 441.39758 345.4344Q441.39758 342.9344 442.31946 341.8094Q443.11633 340.825 444.4757 340.825Q445.49133 340.825 446.13196 341.40314Q446.7882 341.96564 446.9132 342.96564ZM442.61633 346.66876Q442.61633 347.21564 442.83508 347.71564Q443.06946 348.2 443.4757 348.46564Q443.89758 348.73126 444.36633 348.73126Q445.02258 348.73126 445.50696 348.2Q445.99133 347.65314 445.99133 346.73126Q445.99133 345.84064 445.50696 345.325Q445.0382 344.8094 444.31946 344.8094Q443.6007 344.8094 443.1007 345.325Q442.61633 345.84064 442.61633 346.66876ZM448.50696 341.98126L448.50696 340.96564L454.06946 340.96564L454.06946 341.79376Q453.25696 342.66876 452.44446 344.1219Q451.64758 345.5594 451.21008 347.09064Q450.88196 348.16876 450.80383 349.45L449.71008 349.45Q449.7257 348.4344 450.1007 346.9969Q450.49133 345.5594 451.19446 344.23126Q451.9132 342.90314 452.7257 341.98126L448.50696 341.98126Z" fill-rule="nonzero"/><path fill="#000000" d="M483.22223 345.21564Q483.22223 343.6844 483.53473 342.7625Q483.84723 341.825 484.4566 341.325Q485.0816 340.825 486.0191 340.825Q486.7066 340.825 487.22223 341.10626Q487.75348 341.3875 488.09723 341.91876Q488.44098 342.4344 488.62848 343.1844Q488.81598 343.9344 488.81598 345.21564Q488.81598 346.73126 488.50348 347.65314Q488.2066 348.575 487.5816 349.09064Q486.97223 349.59064 486.0191 349.59064Q484.78473 349.59064 484.06598 348.7Q483.22223 347.6375 483.22223 345.21564ZM484.30035 345.21564Q484.30035 347.325 484.80035 348.02814Q485.30035 348.73126 486.0191 348.73126Q486.75348 348.73126 487.23785 348.02814Q487.73785 347.325 487.73785 345.21564Q487.73785 343.09064 487.23785 342.40314Q486.75348 341.7 486.00348 341.7Q485.28473 341.7 484.84723 342.3094Q484.30035 343.09064 484.30035 345.21564ZM490.81598 349.45L490.81598 348.2469L492.0191 348.2469L492.0191 349.45L490.81598 349.45ZM498.69098 342.96564L497.6441 343.04376Q497.50348 342.41876 497.25348 342.1375Q496.81598 341.6844 496.19098 341.6844Q495.69098 341.6844 495.30035 341.96564Q494.81598 342.34064 494.5191 343.04376Q494.23785 343.73126 494.22223 345.0125Q494.59723 344.4344 495.1441 344.15314Q495.7066 343.8719 496.31598 343.8719Q497.36285 343.8719 498.09723 344.65314Q498.84723 345.4344 498.84723 346.65314Q498.84723 347.46564 498.48785 348.16876Q498.1441 348.85626 497.53473 349.23126Q496.92535 349.59064 496.15973 349.59064Q494.8316 349.59064 494.00348 348.6219Q493.17535 347.65314 493.17535 345.4344Q493.17535 342.9344 494.09723 341.8094Q494.8941 340.825 496.25348 340.825Q497.2691 340.825 497.90973 341.40314Q498.56598 341.96564 498.69098 342.96564ZM494.3941 346.66876Q494.3941 347.21564 494.61285 347.71564Q494.84723 348.2 495.25348 348.46564Q495.67535 348.73126 496.1441 348.73126Q496.80035 348.73126 497.28473 348.2Q497.7691 347.65314 497.7691 346.73126Q497.7691 345.84064 497.28473 345.325Q496.81598 344.8094 496.09723 344.8094Q495.37848 344.8094 494.87848 345.325Q494.3941 345.84064 494.3941 346.66876ZM501.84723 344.79376Q501.19098 344.54376 500.86285 344.10626Q500.55035 343.65314 500.55035 343.04376Q500.55035 342.10626 501.22223 341.46564Q501.90973 340.825 503.0191 340.825Q504.1441 340.825 504.8316 341.48126Q505.5191 342.1375 505.5191 343.075Q505.5191 343.66876 505.2066 344.10626Q504.8941 344.54376 504.25348 344.79376Q505.05035 345.04376 505.4566 345.6219Q505.86285 346.2 505.86285 346.9969Q505.86285 348.09064 505.0816 348.84064Q504.31598 349.59064 503.03473 349.59064Q501.7691 349.59064 500.98785 348.84064Q500.2066 348.09064 500.2066 346.96564Q500.2066 346.1219 500.62848 345.5594Q501.06598 344.9969 501.84723 344.79376ZM501.62848 342.9969Q501.62848 343.60626 502.0191 343.9969Q502.42535 344.3875 503.05035 344.3875Q503.65973 344.3875 504.05035 344.0125Q504.44098 343.6219 504.44098 343.0594Q504.44098 342.48126 504.03473 342.09064Q503.62848 341.6844 503.03473 341.6844Q502.42535 341.6844 502.0191 342.075Q501.62848 342.46564 501.62848 342.9969ZM501.30035 346.96564Q501.30035 347.41876 501.50348 347.84064Q501.72223 348.2625 502.1441 348.4969Q502.56598 348.73126 503.05035 348.73126Q503.80035 348.73126 504.28473 348.2469Q504.78473 347.7625 504.78473 347.0125Q504.78473 346.2469 504.28473 345.7469Q503.78473 345.2469 503.0191 345.2469Q502.2691 345.2469 501.78473 345.7469Q501.30035 346.23126 501.30035 346.96564Z" fill-rule="nonzero"/><path fill="#000000" d="M535.0 345.21564Q535.0 343.6844 535.3125 342.7625Q535.625 341.825 536.2344 341.325Q536.8594 340.825 537.7969 340.825Q538.4844 340.825 539.0 341.10626Q539.53125 341.3875 539.875 341.91876Q540.21875 342.4344 540.40625 343.1844Q540.59375 343.9344 540.59375 345.21564Q540.59375 346.73126 540.28125 347.65314Q539.9844 348.575 539.3594 349.09064Q538.75 349.59064 537.7969 349.59064Q536.5625 349.59064 535.84375 348.7Q535.0 347.6375 535.0 345.21564ZM536.0781 345.21564Q536.0781 347.325 536.5781 348.02814Q537.0781 348.73126 537.7969 348.73126Q538.53125 348.73126 539.0156 348.02814Q539.5156 347.325 539.5156 345.21564Q539.5156 343.09064 539.0156 342.40314Q538.53125 341.7 537.78125 341.7Q537.0625 341.7 536.625 342.3094Q536.0781 343.09064 536.0781 345.21564ZM542.59375 349.45L542.59375 348.2469L543.7969 348.2469L543.7969 349.45L542.59375 349.45ZM550.46875 342.96564L549.4219 343.04376Q549.28125 342.41876 549.03125 342.1375Q548.59375 341.6844 547.96875 341.6844Q547.46875 341.6844 547.0781 341.96564Q546.59375 342.34064 546.2969 343.04376Q546.0156 343.73126 546.0 345.0125Q546.375 344.4344 546.9219 344.15314Q547.4844 343.8719 548.09375 343.8719Q549.1406 343.8719 549.875 344.65314Q550.625 345.4344 550.625 346.65314Q550.625 347.46564 550.2656 348.16876Q549.9219 348.85626 549.3125 349.23126Q548.7031 349.59064 547.9375 349.59064Q546.6094 349.59064 545.78125 348.6219Q544.9531 347.65314 544.9531 345.4344Q544.9531 342.9344 545.875 341.8094Q546.6719 340.825 548.03125 340.825Q549.0469 340.825 549.6875 341.40314Q550.34375 341.96564 550.46875 342.96564ZM546.1719 346.66876Q546.1719 347.21564 546.3906 347.71564Q546.625 348.2 547.03125 348.46564Q547.4531 348.73126 547.9219 348.73126Q548.5781 348.73126 549.0625 348.2Q549.5469 347.65314 549.5469 346.73126Q549.5469 345.84064 549.0625 345.325Q548.59375 344.8094 547.875 344.8094Q547.15625 344.8094 546.65625 345.325Q546.1719 345.84064 546.1719 346.66876ZM552.15625 347.46564L553.1719 347.3719Q553.2969 348.09064 553.65625 348.41876Q554.03125 348.73126 554.59375 348.73126Q555.0781 348.73126 555.4375 348.5125Q555.8125 348.27814 556.0469 347.91876Q556.28125 347.54376 556.4375 346.91876Q556.59375 346.27814 556.59375 345.6219Q556.59375 345.54376 556.59375 345.40314Q556.28125 345.90314 555.7344 346.23126Q555.1875 346.54376 554.5469 346.54376Q553.46875 346.54376 552.7344 345.77814Q552.0 344.9969 552.0 343.73126Q552.0 342.41876 552.7656 341.6219Q553.5469 340.825 554.7031 340.825Q555.53125 340.825 556.21875 341.27814Q556.9219 341.73126 557.28125 342.575Q557.6406 343.40314 557.6406 344.98126Q557.6406 346.6219 557.28125 347.60626Q556.9375 348.575 556.21875 349.09064Q555.5156 349.59064 554.5781 349.59064Q553.5625 349.59064 552.9219 349.04376Q552.28125 348.48126 552.15625 347.46564ZM556.46875 343.66876Q556.46875 342.7625 555.9844 342.23126Q555.5156 341.7 554.8281 341.7Q554.125 341.7 553.59375 342.27814Q553.0781 342.84064 553.0781 343.7625Q553.0781 344.575 553.5781 345.09064Q554.0781 345.60626 554.7969 345.60626Q555.53125 345.60626 556.0 345.09064Q556.46875 344.575 556.46875 343.66876Z" fill-rule="nonzero"/></svg>